<svg xmlns="http://www.w3.org/2000/svg" viewBox="0 0 120 120">
  <defs>
    <linearGradient id="grad" x1="0%" y1="0%" x2="100%" y2="100%">
      <stop offset="0%" stop-color="#2e7d32"/>
      <stop offset="100%" stop-color="#689f38"/>
    </linearGradient>
  </defs>
  <circle cx="60" cy="60" r="56" fill="#f6f1e7"/>
  <path d="M36 38c8-12 32-18 46-8 8 6 14 18 8 32-2 5-8 14-12 18-6 8-16 18-24 16-10-2-12-14-10-22 2-8 10-16 16-24 5-6 5-10 2-14-4-5-10-4-16 0-6 4-10 8-14 14z" fill="url(#grad)" opacity="0.95"/>
  <path d="M47 27c8-6 18-4 24 2 6 6 8 16 4 24-3 6-10 10-14 14-4 4-6 8-8 12-2 4-6 6-8 4-4-4-4-12-2-18 2-8 8-14 14-20 4-4 6-8 6-12-1-4-4-6-8-6-5 0-10 4-12 8z" fill="#3e2723" opacity="0.7"/>
  <path d="M82 36c12 0 18-12 18-12s-8 4-16 4c-8 0-14-4-14-4s4 12 12 12z" fill="#4caf50"/>
  <path d="M50 48c-4 8-8 16-8 24 0 6 4 10 10 10 6 0 12-6 16-10 4-4 6-10 6-16 0-8-4-16-10-22-8-8-16-6-20 14z" fill="#81c784" opacity="0.85"/>
  <path d="M74 86c8 0 16-6 18-14 2-6 0-12-4-16-4-4-12-4-18-2-6 2-10 8-10 14 0 8 6 16 14 18z" fill="#558b2f" opacity="0.9"/>
  <path d="M27 80c2-8 12-22 22-26 10-4 22 0 26 8 4 8 2 16-4 22-6 8-18 10-26 8-8-2-14-6-18-12z" fill="#8bc34a"/>
  <circle cx="88" cy="26" r="10" fill="#4caf50"/>
  <path d="M84 24c4-4 12-4 16 2 3 6 0 10-4 12-4 2-8 0-10-4-2-4-1-8-2-10z" fill="#ffffff" opacity="0.85"/>
</svg>