<?xml version="1.0" encoding="UTF-8"?>
<svg version="1.1" xmlns="http://www.w3.org/2000/svg" width="368" height="283">
<path d="M0 0 C121.44 0 242.88 0 368 0 C368 93.39 368 186.78 368 283 C246.56 283 125.12 283 0 283 C0 189.61 0 96.22 0 0 Z " fill="#FBFBFA" transform="translate(0,0)"/>
<path d="M0 0 C-1.90547897 18.57085857 -15.7907204 37.54923645 -29 50 C-32.18183786 52.39372109 -35.42593247 54.25681982 -39 56 C-39.94359375 56.47179687 -40.8871875 56.94359375 -41.859375 57.4296875 C-48.50378579 60.60822996 -54.14828769 62.16362164 -61.56787109 62.05004883 C-62.63693695 62.03706253 -63.70600281 62.02407623 -64.8074646 62.01069641 C-65.95123566 61.99298691 -67.09500671 61.9752774 -68.2734375 61.95703125 C-70.73306466 61.9346217 -73.19270069 61.91316865 -75.65234375 61.89257812 C-79.5007363 61.85570116 -83.3486677 61.81290876 -87.19677734 61.75317383 C-112.33874476 61.06546668 -112.33874476 61.06546668 -135.3984375 70.046875 C-137 71 -137 71 -139 71 C-137.8786221 64.58905072 -135.99958034 59.26045807 -132.875 53.5625 C-132.47321533 52.82241699 -132.07143066 52.08233398 -131.6574707 51.31982422 C-119.20807322 28.92218849 -99.02994461 15.75325904 -74.75 8.8125 C-60.45344557 5.26301723 -46.20464388 4.6690564 -31.55273438 4.54370117 C-20.80849289 4.43487148 -10.20448564 0 0 0 Z " fill="#3F6F22" transform="translate(290,88)"/>
<path d="M0 0 C0.66 0.33 1.32 0.66 2 1 C1.54109375 1.46148437 1.0821875 1.92296875 0.609375 2.3984375 C-6.90918718 10.39085864 -9.11985538 17.28593911 -9.375 28.0625 C-9.59819662 37.43579604 -12.32458081 42.46448481 -19 49 C-17.75453595 52.73639216 -16.36595047 53.18756513 -13 55 C-13.2784375 56.6396875 -13.2784375 56.6396875 -13.5625 58.3125 C-14.2578068 61.93624133 -14.2578068 61.93624133 -13 65 C-13.495 66.485 -13.495 66.485 -14 68 C-13.01 68.33 -12.02 68.66 -11 69 C-11.02320313 69.69867188 -11.04640625 70.39734375 -11.0703125 71.1171875 C-11.08835938 72.02726562 -11.10640625 72.93734375 -11.125 73.875 C-11.14820313 74.77992187 -11.17140625 75.68484375 -11.1953125 76.6171875 C-11.24324836 79.18806994 -11.24324836 79.18806994 -9 81 C-6.4412838 81.19551797 -6.4412838 81.19551797 -3.4765625 81.01953125 C-2.373125 80.99052734 -1.2696875 80.96152344 -0.1328125 80.93164062 C2.19835396 80.85246404 4.52914793 80.76139143 6.859375 80.65820312 C15.30144238 80.46633796 15.30144238 80.46633796 18.73046875 83.0859375 C21.24432451 88.85620334 21.61350758 94.92662111 20 101 C17.87203604 105.39525889 14.86788027 109.1714104 11.9140625 113.03515625 C7.70237116 118.5645405 4.88419638 124.70004886 2 131 C1.34 131 0.68 131 0 131 C-0.30550781 130.24976563 -0.61101562 129.49953125 -0.92578125 128.7265625 C-5.79277111 117.84095702 -13.16269981 111.6533663 -22.75 104.875 C-31.01154536 98.97893985 -37.2915612 91.99571809 -40 82 C-40.7212699 75.53393426 -40.94909316 68.24668381 -39 62 C-43.14587526 69.16273985 -44.03624308 75.80331723 -43 84 C-42.05620826 86.99990944 -40.81732961 89.44227684 -39 92 C-38.48695312 92.7528125 -37.97390625 93.505625 -37.4453125 94.28125 C-33.95702448 98.15960217 -29.85857248 100.97970744 -25.625 104 C-5.21822492 118.69287805 -5.21822492 118.69287805 -3.44921875 127.8515625 C-3.22441399 132.61742349 -3.37860688 135.15421492 -6.25 139.0625 C-12.43299627 143.41870192 -17.4889232 143.89615553 -25 143 C-31.60321948 140.87786188 -36.08739862 137.67958265 -40 132 C-41.50662097 128.98675805 -41.17770373 126.31713623 -41 123 C-40.01 122.01 -40.01 122.01 -39 121 C-38.68546875 121.48210937 -38.3709375 121.96421875 -38.046875 122.4609375 C-34.94361743 127.40005135 -34.94361743 127.40005135 -30 130 C-24.95463616 129.77454348 -24.95463616 129.77454348 -21 127 C-20.2440105 123.03105513 -20.95796711 120.53378604 -23.125 117.25 C-26.67247386 112.82410404 -31.12518092 109.90319548 -35.74243164 106.70751953 C-44.90230773 100.34483985 -51.12344379 94.13505632 -54 83 C-55.6489404 69.80847684 -52.07607346 61.11766984 -44.13183594 50.87988281 C-41.13571657 47.16678057 -37.88021246 43.93433102 -34.375 40.6875 C-28.31542709 34.85013992 -25.33253849 28.30517779 -21.86132812 20.79296875 C-17.32160207 11.34292676 -10.99415577 5.22300535 -1.69921875 0.56640625 C-1.13847656 0.37949219 -0.57773438 0.19257813 0 0 Z " fill="#274B14" transform="translate(146,12)"/>
<path d="M0 0 C0.71043457 0.00894287 1.42086914 0.01788574 2.15283203 0.02709961 C12.76203603 0.25983164 20.13314927 2.04667264 28.3125 9.25 C32.75489132 13.92729226 35.21561986 18.81928499 37.8125 24.6875 C40.49339574 30.71714713 43.29609177 35.99614206 47.3125 41.25 C43.44554097 40.71292236 41.34189501 39.66445371 38.3125 37.25 C43.51594688 43.37004321 49.01230019 48.90317034 54.9375 54.3125 C62.19725271 60.98258263 69.27953855 67.61588716 72.3125 77.25 C72.3125 79.56 72.3125 81.87 72.3125 84.25 C66.3725 84.58 60.4325 84.91 54.3125 85.25 C52.9925 82.61 51.6725 79.97 50.3125 77.25 C42.90570747 67.2911641 33.00563613 59.74286533 22.5390625 53.2578125 C0.05669439 39.26757375 0.05669439 39.26757375 -6.6875 31.25 C-3.92819463 35.79628408 -1.23670331 38.74831831 3.0625 42 C3.62179199 42.42337646 4.18108398 42.84675293 4.75732422 43.28295898 C9.16296502 46.55308179 13.75576062 49.45737363 18.4375 52.3125 C30.05631602 59.39815456 43.6123577 68.42467982 49.3125 81.25 C49.37086929 83.24914808 49.37968894 85.25112891 49.3125 87.25 C47.02217689 88.08719383 44.73039043 88.9198929 42.4375 89.75 C41.78652344 89.98847656 41.13554687 90.22695312 40.46484375 90.47265625 C35.5390625 92.25 35.5390625 92.25 33.3125 92.25 C32.81943359 91.14205078 32.81943359 91.14205078 32.31640625 90.01171875 C26.99970079 78.67229545 19.54550519 70.28314088 10.65625 61.5859375 C7.96808823 58.90673627 5.47461923 56.1147154 3.01953125 53.22265625 C1.84470849 51.86502354 0.63075648 50.54059954 -0.61328125 49.24609375 C-7.02315877 42.48771804 -12.71922654 34.15482038 -15.6875 25.25 C-15.22729621 31.04728942 -14.04186639 35.45024264 -11.1875 40.5625 C-10.83945313 41.20477539 -10.49140625 41.84705078 -10.1328125 42.50878906 C-7.10717662 47.902897 -3.50795177 52.47044229 0.625 57.078125 C2.3125 59.25 2.3125 59.25 2.3125 62.25 C-15.46837088 45.30045918 -15.46837088 45.30045918 -20.6875 35.25 C-21.22632813 34.29996094 -21.76515625 33.34992187 -22.3203125 32.37109375 C-24.75942069 26.80295819 -24.51359554 21.19922027 -23.6875 15.25 C-21.04243791 8.99883658 -16.60417647 4.20129385 -10.515625 1.16796875 C-6.98009833 0.02038758 -3.67566283 -0.05166594 0 0 Z " fill="#3B671F" transform="translate(167.6875,5.75)"/>
<path d="M0 0 C3.25 1 3.25 1 5.25 4 C6.49248665 12.54209575 2.49952179 19.41430015 -2.35546875 26.265625 C-7.05022344 31.93055465 -13.13484352 37.69242176 -19.75 41 C-20.43729254 43.11846285 -20.43729254 43.11846285 -20.875 45.5625 C-21.04257812 46.38878906 -21.21015625 47.21507812 -21.3828125 48.06640625 C-21.56457031 49.02353516 -21.56457031 49.02353516 -21.75 50 C-21.234375 48.96875 -20.71875 47.9375 -20.1875 46.875 C-17.77214053 42.71380175 -14.97540454 39.39382797 -10.75 37 C-7.77409662 36.3818436 -5.84392268 36.58747698 -2.75 37 C-1.265 37.99 -1.265 37.99 0.25 39 C0.81463355 44.4581243 0.02167331 48.16055929 -2.08203125 53.16796875 C-2.93270741 55.50110979 -2.98050396 57.54129105 -2.75 60 C0.58418417 59.72215132 1.93637915 59.33432592 4.26171875 56.85546875 C6.3875109 53.80251381 7.57335107 51.00069798 8.8125 47.5 C12.49259448 37.17160368 12.49259448 37.17160368 17.25 34 C19.9375 34.375 19.9375 34.375 22.25 35 C21.48359684 40.28721167 19.06831998 44.33129885 16.52734375 48.96484375 C15.15236065 52.23200542 15.00440881 54.49379382 15.25 58 C17.59227188 58.32432136 17.59227188 58.32432136 20.25 58 C22.32120023 56.35460307 22.32120023 56.35460307 24 54.125 C24.88945312 53.04605469 24.88945312 53.04605469 25.796875 51.9453125 C27.29204873 50.06339066 27.29204873 50.06339066 28.25 48 C28.91 48 29.57 48 30.25 48 C28.95119125 54.33169265 24.84267888 58.68015353 20.25 63 C16.66996227 64.19334591 14.00684104 64.33543224 10.25 64 C8.3125 62.125 8.3125 62.125 7.25 60 C7.25 59.34 7.25 58.68 7.25 58 C6.59 58 5.93 58 5.25 58 C5.023125 58.598125 4.79625 59.19625 4.5625 59.8125 C2.81648858 62.72251903 1.37622271 63.6800393 -1.75 65 C-5.4375 64.875 -5.4375 64.875 -8.75 64 C-10.90164703 60.77252945 -11.02245079 59.79494361 -11 56.0625 C-11.00773437 54.78052734 -11.00773437 54.78052734 -11.015625 53.47265625 C-10.73412046 50.85218019 -9.93207929 49.32194146 -8.75 47 C-8.75 45.68 -8.75 44.36 -8.75 43 C-12.098264 43.27567182 -13.40014152 43.59268036 -15.62890625 46.1875 C-16.18449219 47.115625 -16.74007812 48.04375 -17.3125 49 C-17.90289062 49.98613281 -18.49328125 50.97226563 -19.1015625 51.98828125 C-21.24055404 55.8962492 -23.10472846 59.86127347 -24.75 64 C-26.73 64 -28.71 64 -30.75 64 C-31.245 60.535 -31.245 60.535 -31.75 57 C-32.0903125 57.49371094 -32.430625 57.98742187 -32.78125 58.49609375 C-35.34245196 61.8815123 -37.40367668 64.42734352 -41.6875 65.3125 C-45.17603212 65.47320014 -46.94478753 64.49678958 -49.625 62.3125 C-52.79827775 59.33847458 -54.67443825 56.66235861 -54.875 52.25 C-54.83375 51.5075 -54.7925 50.765 -54.75 50 C-54.19570313 49.80664062 -53.64140625 49.61328125 -53.0703125 49.4140625 C-52.34585938 49.15367187 -51.62140625 48.89328125 -50.875 48.625 C-50.15570313 48.36976563 -49.43640625 48.11453125 -48.6953125 47.8515625 C-46.56842006 47.06122217 -46.56842006 47.06122217 -44.75 45 C-44.75 43.68 -44.75 42.36 -44.75 41 C-48.021021 41.28037323 -49.66953166 41.93915809 -52.3125 43.9375 C-56.9351789 49.74548118 -58.89624745 56.89394857 -60.75 64 C-62.73 64 -64.71 64 -66.75 64 C-66.75 62.02 -66.75 60.04 -66.75 58 C-67.41 58 -68.07 58 -68.75 58 C-69.018125 58.61875 -69.28625 59.2375 -69.5625 59.875 C-70.75 62 -70.75 62 -73.75 64 C-79.88509061 64.54777595 -79.88509061 64.54777595 -82.625 62.8125 C-84.00407083 60.59066366 -84.28983762 58.55599288 -84.75 56 C-85.17410156 56.56589844 -85.59820312 57.13179687 -86.03515625 57.71484375 C-89.00986701 61.43486665 -90.84036376 63.69164873 -95.4375 65.25 C-98.75 65 -98.75 65 -101.1875 63.625 C-103.54571078 59.66320588 -103.6549917 56.48988129 -102.75 52 C-99.4719734 43.88533794 -93.56335269 37.90667634 -85.75 34 C-83.94156337 33.85283458 -82.12668434 33.7789113 -80.3125 33.75 C-78.86037109 33.71132812 -78.86037109 33.71132812 -77.37890625 33.671875 C-74.75 34 -74.75 34 -72.90234375 35.328125 C-71.75 37 -71.75 37 -71.75 40 C-75.625 39.125 -75.625 39.125 -76.75 38 C-80.78062673 38.15502411 -83.13575236 38.5320018 -86.375 41 C-91.051391 46.90702021 -94.26516028 52.40417764 -94.75 60 C-93.96625 59.505 -93.1825 59.01 -92.375 58.5 C-89.75 57 -89.75 57 -87.75 57 C-87.50507813 56.45859375 -87.26015625 55.9171875 -87.0078125 55.359375 C-85.45646212 52.44938857 -83.58285696 49.9025804 -81.625 47.25 C-80.90054688 46.26515625 -80.17609375 45.2803125 -79.4296875 44.265625 C-78.87539062 43.51796875 -78.32109375 42.7703125 -77.75 42 C-76.1 42.33 -74.45 42.66 -72.75 43 C-73.17433029 46.04103372 -73.63283098 48.71741589 -74.8125 51.5625 C-75.8317738 54.21261187 -75.91078185 56.18631755 -75.75 59 C-73.32430967 58.62429302 -72.064062 58.34348954 -70.38208008 56.50390625 C-67.16920295 51.19561643 -65.21241313 45.92733336 -63.4375 40 C-59.1514334 26.50031574 -53.36978226 8.95647225 -40.75 1 C-37.88500163 0.43909821 -35.72442801 0.71672114 -32.75 1 C-30.6621604 2.53266407 -29.87311665 3.43765639 -29.31640625 5.98046875 C-29.30154845 14.37512782 -32.03284997 19.44044353 -37.75 25.5 C-42.16679422 29.77692907 -47.03762668 32.9053291 -52.34375 35.98046875 C-55.04519769 37.85189555 -55.04519769 37.85189555 -55.59375 41.23828125 C-55.6453125 42.14964844 -55.696875 43.06101563 -55.75 44 C-55.21375 43.2575 -54.6775 42.515 -54.125 41.75 C-50.51755373 37.57295695 -47.62808938 35.22282416 -42.0625 34.5625 C-38.75 35 -38.75 35 -36.75 36.0625 C-35.07384137 39.31005735 -35.78723329 41.57014358 -36.75 45 C-40.25655289 48.81595462 -43.86167618 49.84980616 -48.75 51 C-48.151875 52.11375 -47.55375 53.2275 -46.9375 54.375 C-46.60105469 55.00148437 -46.26460938 55.62796875 -45.91796875 56.2734375 C-44.70236507 58.30502365 -44.70236507 58.30502365 -41.75 60 C-39.27673046 60.14091482 -39.27673046 60.14091482 -36.75 59 C-32.32129858 54.52330955 -30.83677299 50.87018882 -29.5 44.8125 C-25.57473011 29.15523289 -18.36865192 13.18393177 -6.6875 1.75 C-3.75 0 -3.75 0 0 0 Z " fill="#50341F" transform="translate(321.75,158)"/>
<path d="M0 0 C-0.2578125 0.49757812 -0.515625 0.99515625 -0.78125 1.5078125 C-2.45087181 4.92197505 -3.97382151 8.3948022 -5.5 11.875 C-5.80808594 12.56980469 -6.11617187 13.26460937 -6.43359375 13.98046875 C-8.1684851 17.934234 -9.70653657 21.87385166 -11 26 C-6.91312097 22.52180508 -2.95981068 19.00627252 0.75 15.125 C7.34798805 8.43573544 16.4624645 -0.21549574 26.125 -1.375 C29.37035451 -0.95169289 30.77707029 -0.3939243 33 2 C33 3.32 33 4.64 33 6 C32.17757812 5.93039063 31.35515625 5.86078125 30.5078125 5.7890625 C19.20665708 5.24096951 13.45306384 8.81266102 5.27758789 16.11206055 C1.06600845 19.95376075 -2.98440349 23.95514596 -7 28 C-6.68546875 28.87140625 -6.3709375 29.7428125 -6.046875 30.640625 C-5.61890625 31.83171875 -5.1909375 33.0228125 -4.75 34.25 C-4.40666626 35.19866943 -4.40666626 35.19866943 -4.05639648 36.16650391 C-2.6049839 40.20578865 -1.30768328 44.26642057 -0.0625 48.375 C1.82091665 54.14103375 4.71071408 58.71071408 9 63 C10.85772162 62.91015699 12.71247985 62.75388139 14.5625 62.5625 C16.08037109 62.40974609 16.08037109 62.40974609 17.62890625 62.25390625 C18.80259766 62.12822266 18.80259766 62.12822266 20 62 C16.46108945 65.78297335 13.92184757 67.13991602 8.75 67.375 C4.5500035 67.27970024 1.86978647 66.54413389 -1.375 63.84765625 C-8.62680945 55.60220945 -10.75048269 44.42717437 -13 34 C-13.49628906 35.0621875 -13.99257813 36.124375 -14.50390625 37.21875 C-23.60409374 56.3223694 -23.60409374 56.3223694 -32.875 60.5 C-37.59416081 62.10652283 -42.05644205 62.96229563 -47 62 C-52.46341463 59.07317073 -52.46341463 59.07317073 -54 56 C-54.45353794 49.76385337 -54.45353794 49.76385337 -52.8125 47 C-51 46 -51 46 -46 47 C-46 50.63 -46 54.26 -46 58 C-38.43300271 58.51034085 -38.43300271 58.51034085 -32 55 C-29.15626915 51.55305352 -27.65050536 48.26703819 -26.15234375 44.0703125 C-25.80341064 43.09545898 -25.45447754 42.12060547 -25.0949707 41.11621094 C-24.00207272 38.00589881 -22.92470185 34.89061712 -21.8515625 31.7734375 C-21.48546875 30.7215625 -21.119375 29.6696875 -20.7421875 28.5859375 C-19.99580761 26.44074775 -19.25885451 24.29225547 -18.53125 22.140625 C-16.39295474 16.05470772 -13.97954474 10.93621551 -10.14990234 5.72900391 C-8.81540755 4.06852349 -8.81540755 4.06852349 -9 2 C-16.89558973 1.41753846 -22.42642705 2.20538108 -28.60546875 7.33203125 C-33.05369159 12.25373439 -32.40657069 17.8599632 -32.17578125 24.18359375 C-32.11777344 25.11300781 -32.05976562 26.04242188 -32 27 C-34.375 26.6875 -34.375 26.6875 -37 26 C-39.50114278 22.24828582 -39.60663709 19.33978838 -39 15 C-36.60079581 7.01277593 -30.67658692 2.1504565 -23.6875 -1.9375 C-15.35256703 -4.33909086 -7.91811446 -3.28455119 0 0 Z " fill="#345B29" transform="translate(61,164)"/>
<path d="M0 0 C1.9375 1 1.9375 1 3 3 C3.61581327 7.03699809 3.84024599 9.50156132 1.828125 13.08984375 C0.29943048 15.14254953 -1.31987186 17.07006864 -3 19 C-3.7425 20.010625 -4.485 21.02125 -5.25 22.0625 C-9.10562666 26.66396919 -14.65646346 30.32823173 -20 33 C-20.68729254 35.11846285 -20.68729254 35.11846285 -21.125 37.5625 C-21.29257813 38.38878906 -21.46015625 39.21507812 -21.6328125 40.06640625 C-21.75398437 40.70449219 -21.87515625 41.34257812 -22 42 C-21.46375 41.113125 -20.9275 40.22625 -20.375 39.3125 C-17.97358544 35.80209885 -15.64967278 33.29794212 -12 31 C-8.60822017 30.49384209 -5.38499187 30.42162909 -2 31 C0 33 0 33 0.375 36.3125 C0.26134572 42.46119632 -2.03228998 48.23742067 -4 54 C2.51505544 51.91518226 5.37722898 48.72592333 9 43 C9.495 42.01 9.495 42.01 10 41 C10.66 41 11.32 41 12 41 C11.38577028 44.92734763 9.45315066 47.46110295 7.125 50.625 C6.42632812 51.58664063 5.72765625 52.54828125 5.0078125 53.5390625 C2.85254796 56.18072915 1.28511893 57.84422801 -2.19140625 58.265625 C-2.97386719 58.26046875 -3.75632813 58.2553125 -4.5625 58.25 C-5.74005859 58.25773437 -5.74005859 58.25773437 -6.94140625 58.265625 C-9 58 -9 58 -11 56 C-11.7999345 49.11821058 -10.74204697 42.64155408 -9 36 C-13.11004435 36.87360429 -14.68848494 37.57937284 -17.23046875 41.01171875 C-17.90189896 42.22662489 -18.55390524 43.45244003 -19.1875 44.6875 C-19.6815332 45.58758789 -19.6815332 45.58758789 -20.18554688 46.50585938 C-22.38133167 50.57002567 -24.23136829 54.73447645 -26 59 C-27.65 58.67 -29.3 58.34 -31 58 C-32.31732225 38.50850974 -26.00085215 18.94441389 -13 4 C-8.61658094 0.39585544 -5.68211876 -0.75046852 0 0 Z " fill="#335B27" transform="translate(151,164)"/>
<path d="M0 0 C2.08984375 2.203125 2.08984375 2.203125 2.77734375 5.953125 C2.49586725 11.11676284 -0.58273179 14.47957858 -3.91015625 18.203125 C-5.56015625 17.873125 -7.21015625 17.543125 -8.91015625 17.203125 C-7.70634177 14.70950929 -6.45586903 12.52169417 -4.91015625 10.203125 C-4.49342418 6.66112859 -4.49342418 6.66112859 -4.91015625 3.203125 C-8.80772456 0.60474613 -10.88904074 1.10562487 -15.39453125 1.65234375 C-19.04160902 2.45084991 -21.07022087 3.80010276 -23.91015625 6.203125 C-25.69277041 9.76835332 -25.65045232 13.32745734 -24.91015625 17.203125 C-21.99558575 22.09119777 -17.46647883 25.62531954 -13.22265625 29.328125 C-7.96084362 33.97037266 -4.75260322 37.34761552 -4.28515625 44.578125 C-4.51297771 49.51649017 -5.56669704 52.66294276 -8.79296875 56.4140625 C-17.35640833 63.65032694 -26.99613705 66.02905078 -37.91015625 65.203125 C-43.19588741 64.11394403 -47.56855352 62.6585953 -50.91015625 58.203125 C-52.11659191 54.58381802 -52.23284184 52.01081495 -51.91015625 48.203125 C-49.85632216 44.38886169 -47.75808777 41.30199674 -43.91015625 39.203125 C-41.16015625 39.015625 -41.16015625 39.015625 -38.91015625 39.203125 C-38.91015625 41.203125 -38.91015625 41.203125 -40.34765625 42.703125 C-40.86328125 43.198125 -41.37890625 43.693125 -41.91015625 44.203125 C-43.63885404 47.66052057 -43.3998252 51.42288068 -42.91015625 55.203125 C-41.11621957 58.07342369 -39.92752349 59.69444138 -36.91015625 61.203125 C-29.62054027 61.88722742 -22.88252578 61.86589061 -16.91015625 57.203125 C-13.52234659 53.49229163 -13.27260883 50.61594404 -13.4375 45.7265625 C-14.54893889 39.79276481 -19.53914168 36.49779898 -23.91015625 32.765625 C-33.08209427 24.8107326 -33.08209427 24.8107326 -34.5234375 18.53125 C-34.88889469 13.34319112 -34.24488691 9.87120412 -30.97265625 5.765625 C-23.33794715 -1.62623053 -9.70964824 -5.99521905 0 0 Z " fill="#50351F" transform="translate(220.91015625,162.796875)"/>
<path d="M0 0 C2.20528852 2.08737802 3.89162293 4.23066089 5.59375 6.73828125 C9.18342017 11.58322806 13.59056498 14.76311181 18.5 18.1875 C20.15745709 19.3667949 21.81373393 20.54775059 23.46875 21.73046875 C24.24911621 22.28798828 25.02948242 22.84550781 25.83349609 23.41992188 C32.45201927 28.24695388 38.92064815 33.4118663 40.55078125 41.8515625 C40.77558601 46.61742349 40.62139312 49.15421492 37.75 53.0625 C31.56700373 57.41870192 26.5110768 57.89615553 19 57 C12.39678052 54.87786188 7.91260138 51.67958265 4 46 C2.49337903 42.98675805 2.82229627 40.31713623 3 37 C3.66 36.34 4.32 35.68 5 35 C5.47179687 35.72316406 5.47179687 35.72316406 5.953125 36.4609375 C9.05638257 41.40005135 9.05638257 41.40005135 14 44 C19.04536384 43.77454348 19.04536384 43.77454348 23 41 C23.7559895 37.03105513 23.04203289 34.53378604 20.875 31.25 C17.31842955 26.81065311 12.84229264 23.84687826 8.19824219 20.65698242 C-0.90483343 14.38675864 -0.90483343 14.38675864 -4 10 C-4 9.01 -4 8.02 -4 7 C-1.525 7.495 -1.525 7.495 1 8 C0.67 7.34 0.34 6.68 0 6 C-0.039992 4.00039988 -0.04346799 1.99952758 0 0 Z " fill="#254515" transform="translate(102,98)"/>
<path d="M0 0 C2.5 1.5 2.5 1.5 4 3 C3.67 4.65 3.34 6.3 3 8 C2.4121875 7.2575 2.4121875 7.2575 1.8125 6.5 C0.05177629 4.75697805 0.05177629 4.75697805 -2.625 4.75 C-4.95296435 4.74323161 -4.95296435 4.74323161 -6 6 C-5.89781084 10.9050799 -4.84517909 13.48058766 -1.9375 17.4375 C0.16440775 20.41774119 1.47978161 22.57338453 1.6875 26.25 C0.85493259 30.79127679 -0.38653659 32.20777827 -4 35 C-8.46963928 37.66675957 -12.92101159 37.70869606 -18 37 C-20.625 35.125 -20.625 35.125 -22 33 C-22 32.34 -22 31.68 -22 31 C-22.928125 31.495 -23.85625 31.99 -24.8125 32.5 C-29.73919794 34.58707367 -34.74258506 34.89246241 -40 34 C-42.89683868 31.7984026 -44.39297231 30.21405538 -46 27 C-46.82743753 20.38049978 -44.67788674 15.4861079 -41 10 C-33.63752779 2.21520625 -33.63752779 2.21520625 -28.94140625 1.83203125 C-28.15636719 1.82558594 -27.37132813 1.81914062 -26.5625 1.8125 C-25.78003906 1.79832031 -24.99757813 1.78414062 -24.19140625 1.76953125 C-22 2 -22 2 -19 4 C-18.42042546 7.64303997 -18.86335657 9.69565782 -20.375 13.0625 C-25.02732624 18.2686746 -31.16883898 20.86350988 -38 22 C-37.1395861 26.33229715 -37.1395861 26.33229715 -35 30 C-32.30399542 29.73481922 -29.67251201 29.41155643 -27 29 C-26.21625 28.896875 -25.4325 28.79375 -24.625 28.6875 C-22.31205742 27.70894737 -22.01473155 26.23240942 -21 24 C-20.01 23.34 -19.02 22.68 -18 22 C-17.95101562 22.69867188 -17.90203125 23.39734375 -17.8515625 24.1171875 C-17.77679688 25.02726562 -17.70203125 25.93734375 -17.625 26.875 C-17.55539063 27.77992188 -17.48578125 28.68484375 -17.4140625 29.6171875 C-17.20431868 32.17941903 -17.20431868 32.17941903 -15 34 C-12.5 34.33333333 -12.5 34.33333333 -10 34 C-7.67497119 31.67497119 -7.6328955 31.05341735 -7.5 27.875 C-7.5639193 22.88929457 -9.5406025 20.61040648 -12.65234375 16.91015625 C-14.79033475 13.87978639 -14.60535502 11.56486843 -14 8 C-12.6875 5.25 -12.6875 5.25 -11 3 C-10.608125 2.401875 -10.21625 1.80375 -9.8125 1.1875 C-6.78209082 -0.7979405 -3.45656511 -0.54247903 0 0 Z " fill="#38602C" transform="translate(113,189)"/>
<path d="M0 0 C0.66 0.33 1.32 0.66 2 1 C-1.38381196 5.3489542 -3.7521748 8.06659072 -9 10 C-12.36960795 13.55468112 -13.5562497 16.27459062 -14.375 21.0625 C-17.1403067 34.09474329 -23.69436806 43.07686188 -33.23828125 52.12109375 C-35.3749984 54.39994286 -35.45809126 55.98079416 -36 59 C-36.99466351 60.00530816 -37.9953597 61.00466193 -39 62 C-43.27896875 68.78344519 -43.50682049 75.23441394 -43.25 83.0625 C-43.22292969 84.64708008 -43.22292969 84.64708008 -43.1953125 86.26367188 C-43.14862013 88.8434255 -43.08315588 91.42120817 -43 94 C-44.65 93.67 -46.3 93.34 -48 93 C-48.495 93.99 -48.495 93.99 -49 95 C-53.87917559 85.48560761 -55.67200751 76.93911259 -53.44140625 66.34765625 C-50.02224579 56.25377105 -42.04643934 47.79345076 -34.375 40.6875 C-28.31542709 34.85013992 -25.33253849 28.30517779 -21.86132812 20.79296875 C-17.32160207 11.34292676 -10.99415577 5.22300535 -1.69921875 0.56640625 C-1.13847656 0.37949219 -0.57773438 0.19257813 0 0 Z " fill="#426E27" transform="translate(146,12)"/>
<path d="M0 0 C1.1446875 0.309375 1.1446875 0.309375 2.3125 0.625 C1.54609684 5.91221167 -0.86918002 9.95629885 -3.41015625 14.58984375 C-4.78513935 17.85700542 -4.93309119 20.11879382 -4.6875 23.625 C-2.34522812 23.94932136 -2.34522812 23.94932136 0.3125 23.625 C2.38370023 21.97960307 2.38370023 21.97960307 4.0625 19.75 C4.65546875 19.03070313 5.2484375 18.31140625 5.859375 17.5703125 C7.35454873 15.68839066 7.35454873 15.68839066 8.3125 13.625 C8.9725 13.625 9.6325 13.625 10.3125 13.625 C9.01369125 19.95669265 4.90517888 24.30515353 0.3125 28.625 C-3.26753773 29.81834591 -5.93065896 29.96043224 -9.6875 29.625 C-11.625 27.75 -11.625 27.75 -12.6875 25.625 C-12.6875 24.965 -12.6875 24.305 -12.6875 23.625 C-13.3475 23.625 -14.0075 23.625 -14.6875 23.625 C-14.914375 24.223125 -15.14125 24.82125 -15.375 25.4375 C-17.12101142 28.34751903 -18.56127729 29.3050393 -21.6875 30.625 C-25.375 30.5 -25.375 30.5 -28.6875 29.625 C-30.83914703 26.39752945 -30.95995079 25.41994361 -30.9375 21.6875 C-30.94265625 20.83285156 -30.9478125 19.97820312 -30.953125 19.09765625 C-30.67305602 16.49054349 -29.8936692 14.92013977 -28.6875 12.625 C-28.95009783 10.14448778 -28.95009783 10.14448778 -29.6875 7.625 C-30.02083333 5.95833333 -30.35416667 4.29166667 -30.6875 2.625 C-29.429375 2.58375 -28.17125 2.5425 -26.875 2.5 C-26.16730469 2.47679687 -25.45960938 2.45359375 -24.73046875 2.4296875 C-22.6875 2.625 -22.6875 2.625 -19.6875 4.625 C-19.12286645 10.0831243 -19.91582669 13.78555929 -22.01953125 18.79296875 C-22.87020741 21.12610979 -22.91800396 23.16629105 -22.6875 25.625 C-19.35331583 25.34715132 -18.00112085 24.95932592 -15.67578125 22.48046875 C-13.5499891 19.42751381 -12.36414893 16.62569798 -11.125 13.125 C-6.143036 -0.85716781 -6.143036 -0.85716781 0 0 Z " fill="#4F341E" transform="translate(341.6875,192.375)"/>
<path d="M0 0 C1.45212891 -0.03867188 1.45212891 -0.03867188 2.93359375 -0.078125 C5.5625 0.25 5.5625 0.25 7.41015625 1.578125 C8.5625 3.25 8.5625 3.25 8.5625 6.25 C4.6875 5.375 4.6875 5.375 3.5625 4.25 C-0.46812673 4.40502411 -2.82325236 4.7820018 -6.0625 7.25 C-10.738891 13.15702021 -13.95266028 18.65417764 -14.4375 26.25 C-13.65375 25.755 -12.87 25.26 -12.0625 24.75 C-9.4375 23.25 -9.4375 23.25 -7.4375 23.25 C-7.19257813 22.70859375 -6.94765625 22.1671875 -6.6953125 21.609375 C-5.14396212 18.69938857 -3.27035696 16.1525804 -1.3125 13.5 C-0.58804688 12.51515625 0.13640625 11.5303125 0.8828125 10.515625 C1.43710938 9.76796875 1.99140625 9.0203125 2.5625 8.25 C5.0375 8.745 5.0375 8.745 7.5625 9.25 C7.13816971 12.29103372 6.67966902 14.96741589 5.5 17.8125 C4.4807262 20.46261187 4.40171815 22.43631755 4.5625 25.25 C6.2125 25.58 7.8625 25.91 9.5625 26.25 C9.5625 26.91 9.5625 27.57 9.5625 28.25 C5.86763897 30.71324069 3.92956908 30.63991688 -0.4375 30.25 C-2.3125 29.0625 -2.3125 29.0625 -3.4375 27.25 C-3.79990052 25.58941132 -4.13634476 23.92278044 -4.4375 22.25 C-4.86160156 22.81589844 -5.28570312 23.38179687 -5.72265625 23.96484375 C-8.69736701 27.68486665 -10.52786376 29.94164873 -15.125 31.5 C-18.4375 31.25 -18.4375 31.25 -20.875 29.875 C-23.23321078 25.91320588 -23.3424917 22.73988129 -22.4375 18.25 C-18.61408517 8.78524479 -10.59588852 0.16885878 0 0 Z " fill="#50331E" transform="translate(241.4375,191.75)"/>
<path d="M0 0 C2.5 1.5 2.5 1.5 4 3 C3.67 4.65 3.34 6.3 3 8 C2.4121875 7.2575 2.4121875 7.2575 1.8125 6.5 C0.05177629 4.75697805 0.05177629 4.75697805 -2.625 4.75 C-4.95296435 4.74323161 -4.95296435 4.74323161 -6 6 C-5.89781084 10.9050799 -4.84517909 13.48058766 -1.9375 17.4375 C0.16440775 20.41774119 1.47978161 22.57338453 1.6875 26.25 C0.85493259 30.79127679 -0.38653659 32.20777827 -4 35 C-8.46963928 37.66675957 -12.92101159 37.70869606 -18 37 C-20.625 35.125 -20.625 35.125 -22 33 C-22 32.34 -22 31.68 -22 31 C-22.763125 31.20625 -23.52625 31.4125 -24.3125 31.625 C-27 32 -27 32 -30 30 C-28.88625 29.7525 -27.7725 29.505 -26.625 29.25 C-22.96710081 28.41379545 -22.96710081 28.41379545 -21.75 26 C-21.5025 25.34 -21.255 24.68 -21 24 C-20.01 23.34 -19.02 22.68 -18 22 C-17.95101562 22.69867188 -17.90203125 23.39734375 -17.8515625 24.1171875 C-17.77679688 25.02726562 -17.70203125 25.93734375 -17.625 26.875 C-17.55539063 27.77992188 -17.48578125 28.68484375 -17.4140625 29.6171875 C-17.20431868 32.17941903 -17.20431868 32.17941903 -15 34 C-12.5 34.33333333 -12.5 34.33333333 -10 34 C-7.67497119 31.67497119 -7.6328955 31.05341735 -7.5 27.875 C-7.5639193 22.88929457 -9.5406025 20.61040648 -12.65234375 16.91015625 C-14.79033475 13.87978639 -14.60535502 11.56486843 -14 8 C-12.6875 5.25 -12.6875 5.25 -11 3 C-10.608125 2.401875 -10.21625 1.80375 -9.8125 1.1875 C-6.78209082 -0.7979405 -3.45656511 -0.54247903 0 0 Z " fill="#355D29" transform="translate(113,189)"/>
<path d="M0 0 C0.969375 0.845625 1.93875 1.69125 2.9375 2.5625 C9.09296077 7.80877095 15.25105363 12.62366179 22.1875 16.8125 C36.72513925 25.60980973 54.17538146 36.35076291 62 52 C62 52.99 62 53.98 62 55 C64.64 55 67.28 55 70 55 C68.02 55.99 68.02 55.99 66 57 C67.485 57.99 67.485 57.99 69 59 C68.04480469 59.18175781 67.08960938 59.36351562 66.10546875 59.55078125 C58.3013825 61.06802633 50.63645074 62.76145623 43 65 C43 63.68 43 62.36 43 61 C44.9570868 60.32968281 46.91571113 59.66385317 48.875 59 C49.96554688 58.62875 51.05609375 58.2575 52.1796875 57.875 C55 57 55 57 57 57 C54.81814937 44.78163646 45.76111518 36.39542056 35.89892578 29.47387695 C35.18978027 28.98749756 34.48063477 28.50111816 33.75 28 C33.00347168 27.47946045 32.25694336 26.9589209 31.48779297 26.42260742 C27.42998732 23.61035797 23.3252414 20.90890282 19.125 18.3125 C12.21410746 14.0011175 4.4592535 8.9675836 0 2 C0 1.34 0 0.68 0 0 Z " fill="#E7EDE2" transform="translate(160,36)"/>
<path d="M0 0 C0.886875 -0.01417969 1.77375 -0.02835938 2.6875 -0.04296875 C5 0.1875 5 0.1875 7 2.1875 C7.84883227 9.68551837 5.40428821 16.14637026 3 23.1875 C9.51505544 21.10268226 12.37722898 17.91342333 16 12.1875 C16.33 11.5275 16.66 10.8675 17 10.1875 C17.66 10.1875 18.32 10.1875 19 10.1875 C18.38577028 14.11484763 16.45315066 16.64860295 14.125 19.8125 C13.42632812 20.77414063 12.72765625 21.73578125 12.0078125 22.7265625 C9.85254796 25.36822915 8.28511893 27.03172801 4.80859375 27.453125 C4.02613281 27.44796875 3.24367187 27.4428125 2.4375 27.4375 C1.25994141 27.44523437 1.25994141 27.44523437 0.05859375 27.453125 C-2 27.1875 -2 27.1875 -4 25.1875 C-4.7999345 18.30571058 -3.74204697 11.82905408 -2 5.1875 C-3.98 5.1875 -5.96 5.1875 -8 5.1875 C-7.625 3.25 -7.625 3.25 -7 1.1875 C-4.52224905 -0.05137548 -2.76346293 0.02008331 0 0 Z " fill="#2C5221" transform="translate(144,194.8125)"/>
<path d="M0 0 C2.31 0.33 4.62 0.66 7 1 C7 6.28 7 11.56 7 17 C-5.625 17.125 -5.625 17.125 -9 16 C-9.66 16.33 -10.32 16.66 -11 17 C-14 17.1875 -14 17.1875 -17 17 C-19 15 -19 15 -19.25 11.5 C-19 8 -19 8 -17 6 C-14.375 5.875 -14.375 5.875 -12 6 C-11.34 7.32 -10.68 8.64 -10 10 C-9.46375 9.34 -8.9275 8.68 -8.375 8 C-6 6 -6 6 -2.75 5.75 C-1.8425 5.8325 -0.935 5.915 0 6 C0 4.02 0 2.04 0 0 Z " fill="#685141" transform="translate(203,243)"/>
<path d="M0 0 C-13.89754236 6.54926596 -27.0116481 12.54153398 -42.1875 15.375 C-55.60726191 17.96792419 -67.81964671 22.40494659 -79.69482422 29.19189453 C-81.43521148 30.17902371 -83.21466281 31.0967044 -85 32 C-85.66 31.67 -86.32 31.34 -87 31 C-74.94255073 20.30387565 -61.18228178 14.07961508 -45.375 11.4375 C-34.34198402 9.4508859 -23.85562698 5.88479765 -13.27294922 2.26538086 C-12.61548203 2.0438031 -11.95801483 1.82222534 -11.28062439 1.59393311 C-9.47409149 0.98399385 -7.67136468 0.36281518 -5.86889648 -0.2590332 C-3 -1 -3 -1 0 0 Z " fill="#ABCA51" transform="translate(242,123)"/>
<path d="M0 0 C0.33 0.66 0.66 1.32 1 2 C0.7009375 2.71027344 0.401875 3.42054687 0.09375 4.15234375 C-2.52846616 10.97947083 -2.12414139 19.55780153 0.1328125 26.46875 C1.58175173 29.47283342 3.15472631 32.22354653 5 35 C5.433125 35.65226562 5.86625 36.30453125 6.3125 36.9765625 C10.01965797 41.80910771 15.01742215 45.10573588 19.890625 48.67578125 C27.36204402 54.2605731 33.48513739 59.21284347 37 68 C36.34 68 35.68 68 35 68 C35 69.98 35 71.96 35 74 C34.67 74 34.34 74 34 74 C33.92523438 73.3709375 33.85046875 72.741875 33.7734375 72.09375 C33.64195312 71.2378125 33.51046875 70.381875 33.375 69.5 C33.25898438 68.6646875 33.14296875 67.829375 33.0234375 66.96875 C30.13908965 58.60193945 23.58726295 53.76322441 16.5625 48.875 C0.35340105 37.38984112 0.35340105 37.38984112 -2.875 31.8125 C-3.26429687 31.15894531 -3.65359375 30.50539063 -4.0546875 29.83203125 C-6.94495201 24.23065085 -6.74098797 18.12817076 -6 12 C-4.3835798 7.74923902 -2.35284734 3.88639962 0 0 Z " fill="#EEF1EC" transform="translate(108,71)"/>
<path d="M0 0 C0.82564453 0.48533203 0.82564453 0.48533203 1.66796875 0.98046875 C1.00796875 2.30046875 0.34796875 3.62046875 -0.33203125 4.98046875 C-0.99203125 4.65046875 -1.65203125 4.32046875 -2.33203125 3.98046875 C-9.15093451 3.20732173 -14.73865364 3.85054692 -20.33203125 7.98046875 C-22.83676671 10.05860693 -24.24003301 11.89929061 -25.33203125 14.98046875 C-25.72830836 19.6791831 -25.62552422 24.27805922 -25.33203125 28.98046875 C-27.70703125 28.66796875 -27.70703125 28.66796875 -30.33203125 27.98046875 C-32.83317403 24.22875457 -32.93866834 21.32025713 -32.33203125 16.98046875 C-29.93282706 8.99324468 -24.00861817 4.13092525 -17.01953125 0.04296875 C-11.56807623 -1.52778948 -5.33081999 -2.33055949 0 0 Z " fill="#3A5E2F" transform="translate(54.33203125,162.01953125)"/>
<path d="M0 0 C2.475 0.495 2.475 0.495 5 1 C4.01951235 14.72682714 -4.46795913 22.77544432 -14 32 C-14.66 31.67 -15.32 31.34 -16 31 C-11.40066211 20.10103707 -6.55609328 9.86901275 0 0 Z " fill="#F4F3F1" transform="translate(319,162)"/>
<path d="M0 0 C3.42353094 -0.3734761 5.91060954 -0.57873868 9 1.0625 C10.67615863 4.31005735 9.96276671 6.57014358 9 10 C5.49344711 13.81595462 1.88832382 14.84980616 -3 16 C-0.38478377 21.3310177 1.24237134 23.77546166 7 26 C3.63981913 28.24012058 2.0378333 29.0791732 -2 29 C-5.16699786 26.64674465 -7.47529064 23.77989646 -8.59765625 19.97265625 C-8.875 18.0625 -8.875 18.0625 -9 15 C-8.16855469 14.70996094 -8.16855469 14.70996094 -7.3203125 14.4140625 C-6.59585937 14.15367187 -5.87140625 13.89328125 -5.125 13.625 C-4.40570313 13.36976563 -3.68640625 13.11453125 -2.9453125 12.8515625 C-0.81842006 12.06122217 -0.81842006 12.06122217 1 10 C1.16681109 6.91652174 1.16681109 6.91652174 1 4 C0.01 3.67 -0.98 3.34 -2 3 C-1.34 2.01 -0.68 1.02 0 0 Z " fill="#4C2F1A" transform="translate(276,193)"/>
<path d="M0 0 C1.32 0.33 2.64 0.66 4 1 C4.7417919 6.81070321 3.38180761 9.93800323 -0.01953125 14.65625 C-4.88088148 20.40932719 -10.44598749 25.2848913 -17 29 C-15.56852853 24.2768708 -13.62624674 19.96991111 -11.3125 15.625 C-10.96380859 14.96814209 -10.61511719 14.31128418 -10.25585938 13.63452148 C-7.44559302 8.49740032 -4.19973951 4.10787021 0 0 Z " fill="#F4F2EF" transform="translate(285,163)"/>
<path d="M0 0 C2.8125 2 2.8125 2 5 4 C3.989375 4.28875 2.97875 4.5775 1.9375 4.875 C-2.71787879 6.83119957 -4.68959552 10.44155018 -7.37109375 14.55078125 C-9.77358078 18.16315384 -12.09776441 21.33164695 -16.3125 22.8125 C-16.869375 22.874375 -17.42625 22.93625 -18 23 C-18.94734304 15.89492723 -16.03676953 10.74531453 -12 5 C-8.63177194 1.56529376 -4.96720271 -1.17644275 0 0 Z " fill="#F5F3F1" transform="translate(245,195)"/>
<path d="M0 0 C0.26554687 0.58394531 0.53109375 1.16789063 0.8046875 1.76953125 C2.02837088 4.05294043 3.43142828 5.73621084 5.125 7.6875 C8.05348729 11.51100174 8.63011331 14.26573204 8.50390625 19.01953125 C7.87681505 21.48414552 6.99184585 22.44971998 5 24 C2.5 24.375 2.5 24.375 0 24 C-2.28940921 22.30248683 -2.93383612 21.27051813 -3.6171875 18.4765625 C-4.43007916 9.48548813 -4.43007916 9.48548813 -1 5 C-0.29329272 2.30745009 -0.29329272 2.30745009 0 0 Z " fill="#F7F9F6" transform="translate(98,200)"/>
<path d="M0 0 C2.91796875 1.79296875 2.91796875 1.79296875 5 4 C5.7924168 8.32227344 5.8811498 10.50687008 3.64453125 14.296875 C2.16748485 16.27562599 0.64486864 18.15931366 -1 20 C-2.65 19.67 -4.3 19.34 -6 19 C-4.79618552 16.50638429 -3.54571278 14.31856917 -2 12 C-1.58326793 8.45800359 -1.58326793 8.45800359 -2 5 C-5.37507696 2.7499487 -6.08124185 2.80928478 -9.9375 3.25 C-11.21947266 3.38148438 -11.21947266 3.38148438 -12.52734375 3.515625 C-14.99727598 3.99946638 -16.81983722 4.76575471 -19 6 C-19.99 5.01 -20.98 4.02 -22 3 C-15.27121382 -0.93880167 -7.61646931 -1.07238537 0 0 Z " fill="#523724" transform="translate(218,161)"/>
<path d="M0 0 C0.74100976 5.80457646 -0.61439713 8.86955822 -4.0078125 13.578125 C-7.66941865 18.02948934 -11.63093129 22.23600016 -16 26 C-16.66 26 -17.32 26 -18 26 C-15.91122156 18.29762951 -9.41891402 0 0 0 Z " fill="#F2F4EF" transform="translate(150,167)"/>
<path d="M0 0 C0.99 0 1.98 0 3 0 C3.33 0.99 3.66 1.98 4 3 C4.37125 2.505 4.7425 2.01 5.125 1.5 C7.79160885 -0.63328708 9.67893663 -0.35330461 13 0 C15 2 15 2 15.25 4.9375 C15 8 15 8 13 11 C9.9609375 11.29296875 9.9609375 11.29296875 6.375 11.1875 C5.18648438 11.16042969 3.99796875 11.13335937 2.7734375 11.10546875 C1.85820312 11.07066406 0.94296875 11.03585937 0 11 C0 7.37 0 3.74 0 0 Z " fill="#7B6859" transform="translate(307,249)"/>
<path d="M0 0 C3.375 0.3125 3.375 0.3125 7 1 C9.54138215 4.81207322 9.79533203 7.60103965 9 12 C6.2135083 19.38767371 2.18876533 26.90513266 -4 32 C-4.99 32 -5.98 32 -7 32 C-8.68798827 33.43750191 -8.68798827 33.43750191 -10 35 C-10.66 34.67 -11.32 34.34 -12 34 C-11.33613281 33.3709375 -10.67226563 32.741875 -9.98828125 32.09375 C-2.55622768 24.88954041 4.09660052 17.94991546 5.3125 7.25 C5.209375 6.5075 5.10625 5.765 5 5 C4.01 4.34 3.02 3.68 2 3 C1.34 2.01 0.68 1.02 0 0 Z " fill="#553C2A" transform="translate(318,158)"/>
<path d="M0 0 C0.969375 0.845625 1.93875 1.69125 2.9375 2.5625 C10.12087373 8.68485645 17.41351298 13.93348781 25.50390625 18.8125 C29.32053602 21.15918953 32.97975165 23.70956708 36.625 26.3125 C37.21692139 26.73313721 37.80884277 27.15377441 38.41870117 27.5871582 C41.14903209 29.55618112 43.72610374 31.50839027 46 34 C45.01 34.33 44.02 34.66 43 35 C40.60740211 33.45345383 38.42289877 31.87604349 36.1875 30.125 C31.1662647 26.30353969 26.11174674 22.70197507 20.75 19.375 C4.70601203 9.31194704 4.70601203 9.31194704 0 2 C0 1.34 0 0.68 0 0 Z " fill="#E3EADE" transform="translate(160,36)"/>
<path d="M0 0 C3 0 6 0 9 0 C9.99 -0.04125 10.98 -0.0825 12 -0.125 C15 0 15 0 17 2 C17 3.32 17 4.64 17 6 C14.69 6 12.38 6 10 6 C10.33 6.66 10.66 7.32 11 8 C14.02934491 8.65772428 14.02934491 8.65772428 17 9 C16.67 9.66 16.34 10.32 16 11 C10.57142857 11.36190476 10.57142857 11.36190476 8.125 9.8125 C6.65218861 7.43963721 6.77776806 5.74086056 7 3 C5.35 2.67 3.7 2.34 2 2 C2 4.97 2 7.94 2 11 C1.34 11 0.68 11 0 11 C0 7.37 0 3.74 0 0 Z " fill="#533928" transform="translate(105,249)"/>
<path d="M0 0 C0.33 0 0.66 0 1 0 C1.54920928 5.12595332 1.46561932 7.94772172 -1.6875 12.125 C-2.78058889 13.42605476 -3.8842335 14.71834016 -5 16 C-5.7425 17.010625 -6.485 18.02125 -7.25 19.0625 C-10.73531895 23.23798112 -15.49299628 26.04200533 -20 29 C-20.66 27.68 -21.32 26.36 -22 25 C-21.443125 24.93039063 -20.88625 24.86078125 -20.3125 24.7890625 C-14.24844298 22.71990791 -8.71026374 15.63617205 -5.4375 10.25 C-4.04236346 7.09577826 -3.33393634 4.42284751 -3 1 C-2.34 1.33 -1.68 1.66 -1 2 C-0.67 1.34 -0.34 0.68 0 0 Z " fill="#375C2B" transform="translate(153,167)"/>
<path d="M0 0 C-32.10179963 15.12808654 -32.10179963 15.12808654 -40 13 C-37.59285117 9.38927676 -36.49928167 9.25793218 -32.43359375 8.0625 C-31.30759766 7.72476563 -30.18160156 7.38703125 -29.02148438 7.0390625 C-27.24741211 6.52472656 -27.24741211 6.52472656 -25.4375 6 C-23.12343237 5.31339432 -20.80962517 4.62591026 -18.49609375 3.9375 C-17.38733887 3.61265625 -16.27858398 3.2878125 -15.13623047 2.953125 C-11.64149746 1.89104827 -8.21012464 0.69687022 -4.78930664 -0.58203125 C-3 -1 -3 -1 0 0 Z " fill="#A6C750" transform="translate(242,123)"/>
<path d="M0 0 C6.15234375 -0.09765625 6.15234375 -0.09765625 8 0 C9.89488952 1.89488952 9.18019112 4.57139146 9.23046875 7.08984375 C9 9 9 9 7 11 C4.375 11.125 4.375 11.125 2 11 C2 12.32 2 13.64 2 15 C1.34 15 0.68 15 0 15 C0 10.05 0 5.1 0 0 Z " fill="#513826" transform="translate(273,249)"/>
<path d="M0 0 C0.78375 0.04125 1.5675 0.0825 2.375 0.125 C3.035 1.445 3.695 2.765 4.375 4.125 C5.035 4.125 5.695 4.125 6.375 4.125 C6.5625 6.5 6.5625 6.5 6.375 9.125 C2.92254176 11.42663882 1.42761287 11.46990322 -2.625 11.125 C-4.625 9.125 -4.625 9.125 -4.875 5.625 C-4.58138251 1.51435512 -4.25902123 0.20281053 0 0 Z " fill="#F4F0ED" transform="translate(188.625,248.875)"/>
<path d="M0 0 C3 0.25 3 0.25 5 2.25 C5.34490322 6.30261287 5.30163882 7.79754176 3 11.25 C0 11.5625 0 11.5625 -3 11.25 C-5 9.25 -5 9.25 -5.25 5.75 C-4.93427155 1.32980166 -4.46370491 0.37197541 0 0 Z " fill="#67503F" transform="translate(247,248.75)"/>
<path d="M0 0 C1.65 0 3.3 0 5 0 C5.5775 1.093125 6.155 2.18625 6.75 3.3125 C8.46454846 6.31750366 10.00696418 8.16555869 13 10 C13.99 10.66 14.98 11.32 16 12 C13.03 12.66 10.06 13.32 7 14 C2.45263571 9.25913085 0.26936156 6.59935831 0 0 Z " fill="#462C16" transform="translate(267,208)"/>
<path d="M0 0 C-0.48811868 4.2303619 -3.00655673 7.15782115 -6 10 C-11.1 13 -11.1 13 -14 13 C-13.47616397 8.89542181 -12.34834816 6.78489488 -9.5625 3.75 C-8.94503906 3.06421875 -8.32757813 2.3784375 -7.69140625 1.671875 C-4.88477309 -1.102349 -3.65442403 -1.09632721 0 0 Z " fill="#ECF1E9" transform="translate(90,195)"/>
<path d="M0 0 C2.47923801 -0.02685095 4.9581884 -0.04676547 7.4375 -0.0625 C8.14455078 -0.07087891 8.85160156 -0.07925781 9.58007812 -0.08789062 C11.38693559 -0.09653588 13.19387603 -0.05220011 15 0 C16 1 16 1 16.09765625 3.28515625 C16.08605469 4.20167969 16.07445312 5.11820313 16.0625 6.0625 C16.05347656 6.98160156 16.04445313 7.90070313 16.03515625 8.84765625 C16.02355469 9.55792969 16.01195312 10.26820313 16 11 C15.34 11 14.68 11 14 11 C14 8.03 14 5.06 14 2 C12.68 2.33 11.36 2.66 10 3 C9.67 5.64 9.34 8.28 9 11 C8.34 11 7.68 11 7 11 C6.67 8.03 6.34 5.06 6 2 C5.34 2 4.68 2 4 2 C3.67 4.97 3.34 7.94 3 11 C2.01 11 1.02 11 0 11 C0 7.37 0 3.74 0 0 Z " fill="#624F40" transform="translate(254,249)"/>
<path d="M0 0 C0.99 0.33 1.98 0.66 3 1 C4.38671875 3.87109375 4.38671875 3.87109375 5.6875 7.4375 C6.34298828 9.19900391 6.34298828 9.19900391 7.01171875 10.99609375 C8 14 8 14 8 16 C7.01 16 6.02 16 5 16 C4.67 14.35 4.34 12.7 4 11 C1.05908413 11.18415432 1.05908413 11.18415432 -2 12 C-3.43637698 13.95163118 -3.43637698 13.95163118 -4 16 C-4.66 16 -5.32 16 -6 16 C-4.25192871 10.53262809 -2.34205919 5.24175152 0 0 Z " fill="#66503E" transform="translate(135,244)"/>
<path d="M0 0 C-0.125 2.25 -0.125 2.25 -1 5 C-4.64654014 7.99826633 -6.21552606 9 -11 9 C-11 10.65 -11 12.3 -11 14 C-11.99 14 -12.98 14 -14 14 C-13.32927529 8.46652116 -10.91078104 3.97241913 -7.0625 0 C-4.35040481 -1.31495524 -2.82589286 -0.86346726 0 0 Z " fill="#EFECE9" transform="translate(278,199)"/>
<path d="M0 0 C2.375 1.25 2.375 1.25 4 3 C4 4.32 4 5.64 4 7 C3.09636719 6.98839844 2.19273438 6.97679687 1.26171875 6.96484375 C-0.50751953 6.95130859 -0.50751953 6.95130859 -2.3125 6.9375 C-3.48425781 6.92589844 -4.65601562 6.91429687 -5.86328125 6.90234375 C-9.03059195 6.85100102 -9.03059195 6.85100102 -12 8 C-12 7.34 -12 6.68 -12 6 C-12.99 5.67 -13.98 5.34 -15 5 C-5.3612532 -0.99744246 -5.3612532 -0.99744246 0 0 Z " fill="#4F7044" transform="translate(90,163)"/>
<path d="M0 0 C0.33 0 0.66 0 1 0 C1.04898438 0.69867188 1.09796875 1.39734375 1.1484375 2.1171875 C1.22320312 3.02726563 1.29796875 3.93734375 1.375 4.875 C1.44460937 5.77992188 1.51421875 6.68484375 1.5859375 7.6171875 C1.79568132 10.17941903 1.79568132 10.17941903 4 12 C4 12.99 4 13.98 4 15 C1.625 14.8125 1.625 14.8125 -1 14 C-2.3125 11.4375 -2.3125 11.4375 -3 9 C-3.763125 9.20625 -4.52625 9.4125 -5.3125 9.625 C-8 10 -8 10 -11 8 C-9.88625 7.7525 -8.7725 7.505 -7.625 7.25 C-3.97371265 6.40432658 -3.97371265 6.40432658 -2.6875 4 C-2.460625 3.34 -2.23375 2.68 -2 2 C-1.34 1.34 -0.68 0.68 0 0 Z " fill="#3E6132" transform="translate(94,211)"/>
<path d="M0 0 C11.58764625 5.24464558 25.26716657 16.16791643 30 28 C29.34 28 28.68 28 28 28 C28 29.98 28 31.96 28 34 C27.67 34 27.34 34 27 34 C26.92523438 33.3709375 26.85046875 32.741875 26.7734375 32.09375 C26.57621094 30.80984375 26.57621094 30.80984375 26.375 29.5 C26.20097656 28.24703125 26.20097656 28.24703125 26.0234375 26.96875 C23.0739314 18.41293078 16.31469788 13.59498694 9.125 8.625 C7.3944054 7.41459879 5.66760483 6.1987482 3.9453125 4.9765625 C3.18750488 4.45143066 2.42969727 3.92629883 1.64892578 3.38525391 C1.10478027 2.92812012 0.56063477 2.47098633 0 2 C0 1.34 0 0.68 0 0 Z " fill="#CFD6C9" transform="translate(115,111)"/>
<path d="M0 0 C0.763125 0.20625 1.52625 0.4125 2.3125 0.625 C3.125 2.3125 3.125 2.3125 3.3125 4.625 C1.1875 7.4375 1.1875 7.4375 -1.6875 9.625 C-4.5 9.4375 -4.5 9.4375 -6.6875 8.625 C-6.375 5.25 -6.375 5.25 -5.6875 1.625 C-2.6875 -0.375 -2.6875 -0.375 0 0 Z " fill="#553B28" transform="translate(348.6875,175.375)"/>
<path d="M0 0 C2.33294775 -0.04241723 4.66702567 -0.04092937 7 0 C8.66342837 1.66342837 8.36048097 3.7825709 8.5625 6.0625 C8.64628906 6.98160156 8.73007813 7.90070313 8.81640625 8.84765625 C8.87699219 9.55792969 8.93757813 10.26820313 9 11 C6.03 11 3.06 11 0 11 C-0.33 9.68 -0.66 8.36 -1 7 C0.25 5.25 0.25 5.25 2 4 C2.99 4 3.98 4 5 4 C5 3.01 5 2.02 5 1 C3.35 1.33 1.7 1.66 0 2 C0 1.34 0 0.68 0 0 Z " fill="#806C5E" transform="translate(94,249)"/>
<path d="M0 0 C3.3 0 6.6 0 10 0 C10.33 2.31 10.66 4.62 11 7 C11.66 7 12.32 7 13 7 C13.66 4.69 14.32 2.38 15 0 C15.66 0 16.32 0 17 0 C16.52269162 1.4589426 16.04308958 2.91713496 15.5625 4.375 C15.29566406 5.18710938 15.02882812 5.99921875 14.75390625 6.8359375 C14 9 14 9 13 11 C12.34 11 11.68 11 11 11 C10.01 8.03 9.02 5.06 8 2 C6.35 2.33 4.7 2.66 3 3 C2.67 5.64 2.34 8.28 2 11 C1.34 11 0.68 11 0 11 C0 7.37 0 3.74 0 0 Z " fill="#5F493D" transform="translate(166,249)"/>
<path d="M0 0 C0.66 0 1.32 0 2 0 C2 2.31 2 4.62 2 7 C4.31 7 6.62 7 9 7 C9 4.69 9 2.38 9 0 C9.66 0 10.32 0 11 0 C11 5.28 11 10.56 11 16 C10.34 16 9.68 16 9 16 C9 13.36 9 10.72 9 8 C6.69 8 4.38 8 2 8 C2 10.64 2 13.28 2 16 C1.34 16 0.68 16 0 16 C0 10.72 0 5.44 0 0 Z " fill="#4F3724" transform="translate(37,244)"/>
<path d="M0 0 C0.66 0.33 1.32 0.66 2 1 C1.01 2.32 0.02 3.64 -1 5 C1.31 5 3.62 5 6 5 C6 5.33 6 5.66 6 6 C5.34773438 6.06316406 4.69546875 6.12632812 4.0234375 6.19140625 C-0.87072568 6.87716658 -4.16216793 7.50264537 -7.4375 11.375 C-8.31537313 12.56622161 -9.1722589 13.77341335 -10 15 C-10.61875 15.804375 -11.2375 16.60875 -11.875 17.4375 C-12.24625 17.953125 -12.6175 18.46875 -13 19 C-12.13061224 10.30612245 -12.13061224 10.30612245 -10 7 C-7.87109375 5.33203125 -7.87109375 5.33203125 -5.4375 3.8125 C-2.56549652 2.10136748 -2.56549652 2.10136748 0 0 Z " fill="#DDE5DB" transform="translate(141,189)"/>
<path d="M0 0 C2.475 0.495 2.475 0.495 5 1 C5 6.28 5 11.56 5 17 C3.35 17 1.7 17 0 17 C0 11.39 0 5.78 0 0 Z " fill="#A79B92" transform="translate(205,243)"/>
<path d="M0 0 C1.66611905 -0.042721 3.33382885 -0.04063832 5 0 C6.88057664 1.88057664 6.46277585 4.57124096 6.71875 7.08984375 C6.91037786 9.08088347 6.91037786 9.08088347 8 11 C5.03 11 2.06 11 -1 11 C-1.33 9.35 -1.66 7.7 -2 6 C1 4 1 4 4 4 C4 3.01 4 2.02 4 1 C2.35 1.33 0.7 1.66 -1 2 C-0.67 1.34 -0.34 0.68 0 0 Z " fill="#715E51" transform="translate(52,249)"/>
<path d="M0 0 C0 0.99 0 1.98 0 3 C-2.27382755 4.86680324 -4.49799982 6.4995136 -6.9375 8.125 C-7.64519531 8.60493408 -8.35289062 9.08486816 -9.08203125 9.5793457 C-16.73171898 14.66152311 -24.79841014 18.88905459 -33 23 C-33.66 22.34 -34.32 21.68 -35 21 C-32.66738311 19.74864823 -30.33388998 18.49897327 -28 17.25 C-27.30737061 16.8780249 -26.61474121 16.5060498 -25.90112305 16.12280273 C-22.57311117 14.34241223 -19.25009145 12.62370891 -15.8125 11.0625 C-10.04400653 8.2613912 -5.03224456 3.92515076 0 0 Z " fill="#659133" transform="translate(276,100)"/>
<path d="M0 0 C1.99954746 -0.04254356 4.00041636 -0.04080783 6 0 C7.66342837 1.66342837 7.36048097 3.7825709 7.5625 6.0625 C7.64628906 6.98160156 7.73007812 7.90070313 7.81640625 8.84765625 C7.87699219 9.55792969 7.93757813 10.26820313 8 11 C5.36 11 2.72 11 0 11 C-0.33 9.35 -0.66 7.7 -1 6 C2 4 2 4 5 4 C4.67 3.34 4.34 2.68 4 2 C2.68 2 1.36 2 0 2 C0 1.34 0 0.68 0 0 Z " fill="#735F51" transform="translate(285,249)"/>
<path d="M0 0 C0.99 0.33 1.98 0.66 3 1 C1.09744619 7.76463575 -4.40547148 13.03207449 -10 17 C-10.99 16.34 -11.98 15.68 -13 15 C-12.22076172 14.38125 -12.22076172 14.38125 -11.42578125 13.75 C-6.48695992 9.66018123 -3.04725411 5.64035015 0 0 Z " fill="#553B25" transform="translate(288,171)"/>
<path d="M0 0 C0.94746094 -0.01417969 1.89492188 -0.02835938 2.87109375 -0.04296875 C5.60751644 0.19135482 7.22678123 0.79048617 9.5625 2.1875 C8.9025 3.5075 8.2425 4.8275 7.5625 6.1875 C6.9025 5.8575 6.2425 5.5275 5.5625 5.1875 C3.56598191 4.98331065 1.56490179 4.82227704 -0.4375 4.6875 C-6.21527778 4.29861111 -6.21527778 4.29861111 -8.4375 3.1875 C-8.4375 2.5275 -8.4375 1.8675 -8.4375 1.1875 C-5.3864365 0.17047883 -3.19550939 0.02167917 0 0 Z " fill="#4C6C41" transform="translate(46.4375,160.8125)"/>
<path d="M0 0 C2.97 0 5.94 0 9 0 C9 3.63 9 7.26 9 11 C8.34 11 7.68 11 7 11 C7 7.7 7 4.4 7 1 C6.01 1.33 5.02 1.66 4 2 C3.67 4.97 3.34 7.94 3 11 C2.01 11 1.02 11 0 11 C0 7.37 0 3.74 0 0 Z " fill="#654F40" transform="translate(324,249)"/>
<path d="M0 0 C-0.33 1.65 -0.66 3.3 -1 5 C-1.556875 4.66484375 -2.11375 4.3296875 -2.6875 3.984375 C-5.43020707 2.81687132 -7.05762354 2.90911492 -10 3.25 C-10.845625 3.33765625 -11.69125 3.4253125 -12.5625 3.515625 C-15.01270651 4.00252501 -16.8343719 4.77682117 -19 6 C-19.99 5.01 -20.98 4.02 -22 3 C-15.08715353 -1.04654428 -7.74175497 -0.26901851 0 0 Z " fill="#4F3626" transform="translate(218,161)"/>
<path d="M0 0 C0 0.66 0 1.32 0 2 C-0.969375 1.979375 -1.93875 1.95875 -2.9375 1.9375 C-5.87465895 1.64381501 -5.87465895 1.64381501 -7 3 C-7.09823996 4.47648876 -7.12973519 5.95775417 -7.125 7.4375 C-7.12757812 8.24058594 -7.13015625 9.04367188 -7.1328125 9.87109375 C-7.13578326 12.05397931 -7.13578326 12.05397931 -6 14 C-4.02 14 -2.04 14 0 14 C0 14.66 0 15.32 0 16 C-7.35678392 16.48241206 -7.35678392 16.48241206 -10 14.5 C-11.42949186 10.92627035 -11.68375401 7.79172676 -11 4 C-8.12243286 -0.60410742 -5.14365078 -0.39566544 0 0 Z " fill="#503726" transform="translate(92,244)"/>
<path d="M0 0 C0.66 0.33 1.32 0.66 2 1 C1.34 1.66 0.68 2.32 0 3 C1.65 3.33 3.3 3.66 5 4 C5 4.33 5 4.66 5 5 C3.80375 5.226875 2.6075 5.45375 1.375 5.6875 C-4.43782252 7.1278454 -7.93646955 10.71071786 -12 15 C-12.18703073 12.00750839 -12.22386873 10.68348266 -11 8 C-7.57978743 4.94623878 -3.86731977 2.45291287 0 0 Z " fill="#ECE7E0" transform="translate(277,188)"/>
<path d="M0 0 C1.0725 0.103125 2.145 0.20625 3.25 0.3125 C2.92 0.9725 2.59 1.6325 2.25 2.3125 C0.59178227 2.68559899 -1.07577014 3.01950977 -2.75 3.3125 C-4.13528649 4.47552154 -4.13528649 4.47552154 -3.9375 7.6875 C-4.05453853 11.40925391 -4.05453853 11.40925391 -1.75 14.3125 C1.33365871 14.5627157 1.33365871 14.5627157 4.25 14.3125 C3.92 14.9725 3.59 15.6325 3.25 16.3125 C0 16.625 0 16.625 -3.75 16.3125 C-6.68307135 13.75546344 -7.61097012 12.14667929 -8.25 8.3125 C-7.34775117 2.899007 -5.5739825 0.46449854 0 0 Z " fill="#5A4634" transform="translate(236.75,243.6875)"/>
<path d="M0 0 C0 1.32 0 2.64 0 4 C-2.78473875 5.53378536 -5.57878338 7.0497558 -8.375 8.5625 C-9.1690625 9.00013672 -9.963125 9.43777344 -10.78125 9.88867188 C-11.54179687 10.29794922 -12.30234375 10.70722656 -13.0859375 11.12890625 C-14.1385376 11.70233765 -14.1385376 11.70233765 -15.21240234 12.28735352 C-15.80230957 12.52252686 -16.3922168 12.7577002 -17 13 C-17.66 12.67 -18.32 12.34 -19 12 C-4.52427184 0 -4.52427184 0 0 0 Z " fill="#A5C551" transform="translate(174,142)"/>
<path d="M0 0 C0.969375 0.845625 1.93875 1.69125 2.9375 2.5625 C9.61723582 8.27259675 16.42808123 13.52287092 24 18 C23.01 18.66 22.02 19.32 21 20 C2.76708075 6.45807453 2.76708075 6.45807453 0 2 C0 1.34 0 0.68 0 0 Z " fill="#CAD9C0" transform="translate(160,36)"/>
<path d="M0 0 C0.78246094 -0.01417969 1.56492187 -0.02835938 2.37109375 -0.04296875 C4.5625 0.1875 4.5625 0.1875 7.5625 2.1875 C7.75 5.3125 7.75 5.3125 7.5625 8.1875 C5.9125 8.1875 4.2625 8.1875 2.5625 8.1875 C2.5625 6.8675 2.5625 5.5475 2.5625 4.1875 C0.5825 4.5175 -1.3975 4.8475 -3.4375 5.1875 C-3.7675 4.1975 -4.0975 3.2075 -4.4375 2.1875 C-5.0975 1.8575 -5.7575 1.5275 -6.4375 1.1875 C-4.0978331 0.01766655 -2.60358473 0.0213759 0 0 Z " fill="#3F6433" transform="translate(86.4375,190.8125)"/>
<path d="M0 0 C0.825 0.45375 1.65 0.9075 2.5 1.375 C1.51 2.035 0.52 2.695 -0.5 3.375 C-1.428125 4.035 -2.35625 4.695 -3.3125 5.375 C-6.35851515 7.28622519 -9.05883271 8.39180935 -12.5 9.375 C-11.94897952 5.71750175 -10.70075593 4.25559034 -7.8125 2 C-4.0372093 -0.72093023 -4.0372093 -0.72093023 0 0 Z " fill="#3C6030" transform="translate(39.5,163.625)"/>
<path d="M0 0 C3.55034873 4.36843804 6.82856957 8.89607636 10.09765625 13.4765625 C11.63322708 15.51347987 13.13708145 17.27056159 15 19 C14.67 19.66 14.34 20.32 14 21 C11.67103983 18.78751023 9.36507052 16.55241554 7.0625 14.3125 C6.0734668 13.37374023 6.0734668 13.37374023 5.06445312 12.41601562 C0.24732156 7.69769702 0.24732156 7.69769702 -1.00390625 4.16796875 C-1 2 -1 2 0 0 Z " fill="#486D35" transform="translate(156,47)"/>
<path d="M0 0 C0.66 0 1.32 0 2 0 C1.38577028 3.92734763 -0.54684934 6.46110295 -2.875 9.625 C-3.92300781 11.06746094 -3.92300781 11.06746094 -4.9921875 12.5390625 C-7 15 -7 15 -10 17 C-10.99 17 -11.98 17 -13 17 C-13 15.68 -13 14.36 -13 13 C-12.13375 12.67 -11.2675 12.34 -10.375 12 C-5.57106387 9.15322303 -2.49059208 4.98118416 0 0 Z " fill="#46663E" transform="translate(161,205)"/>
<path d="M0 0 C-3.04834952 1.57089019 -6.11535124 3.10125007 -9.1875 4.625 C-10.05181641 5.07101563 -10.91613281 5.51703125 -11.80664062 5.9765625 C-18.30320166 9.16261542 -18.30320166 9.16261542 -22.11328125 8.2734375 C-22.73589844 7.85320312 -23.35851562 7.43296875 -24 7 C-20.19612847 4.46408565 -16.31371331 3.25379572 -12 1.8125 C-11.18015625 1.52697266 -10.3603125 1.24144531 -9.515625 0.94726562 C-8.72671875 0.68236328 -7.9378125 0.41746094 -7.125 0.14453125 C-6.40570313 -0.09934326 -5.68640625 -0.34321777 -4.9453125 -0.59448242 C-3 -1 -3 -1 0 0 Z " fill="#8DB344" transform="translate(242,123)"/>
<path d="M0 0 C0.99 0 1.98 0 3 0 C3.33 2.31 3.66 4.62 4 7 C4.66 7 5.32 7 6 7 C6.66 4.69 7.32 2.38 8 0 C8.66 0 9.32 0 10 0 C6.72093023 10.46511628 6.72093023 10.46511628 4 15 C3.01 15.33 2.02 15.66 1 16 C1 15.34 1 14.68 1 14 C1.66 14 2.32 14 3 14 C2.40380045 9.13103697 1.43023178 4.67209049 0 0 Z " fill="#5F4D3E" transform="translate(143,249)"/>
<path d="M0 0 C0.66 0.33 1.32 0.66 2 1 C1.32453125 1.71285156 0.6490625 2.42570313 -0.046875 3.16015625 C-4.69728125 8.15329475 -8.97862733 12.81991953 -12 19 C-13.27971063 16.09156675 -12.92847385 14.74250584 -12.0625 11.625 C-10.24660525 7.67924738 -7.36756782 5.65952003 -3.83984375 3.26171875 C-1.87414535 1.9963066 -1.87414535 1.9963066 0 0 Z " fill="#E1DAD3" transform="translate(312,190)"/>
<path d="M0 0 C0.66 0 1.32 0 2 0 C2.33 2.97 2.66 5.94 3 9 C4.32 9 5.64 9 7 9 C7 6.03 7 3.06 7 0 C7.66 0 8.32 0 9 0 C9 3.63 9 7.26 9 11 C2.84765625 11.09765625 2.84765625 11.09765625 1 11 C0 10 0 10 -0.09765625 7.71484375 C-0.08605469 6.79832031 -0.07445312 5.88179687 -0.0625 4.9375 C-0.05347656 4.01839844 -0.04445312 3.09929687 -0.03515625 2.15234375 C-0.02355469 1.44207031 -0.01195312 0.73179687 0 0 Z " fill="#563F30" transform="translate(154,249)"/>
<path d="M0 0 C6.15234375 -0.09765625 6.15234375 -0.09765625 8 0 C9 1 9 1 9.09765625 3.28515625 C9.08605469 4.20167969 9.07445312 5.11820313 9.0625 6.0625 C9.05347656 6.98160156 9.04445313 7.90070313 9.03515625 8.84765625 C9.02355469 9.55792969 9.01195312 10.26820313 9 11 C8.34 11 7.68 11 7 11 C7 7.7 7 4.4 7 1 C5.02 1.99 5.02 1.99 3 3 C2.30367785 4.95365445 2.30367785 4.95365445 2.25 7.125 C2.1675 8.40375 2.085 9.6825 2 11 C1.34 11 0.68 11 0 11 C0 7.37 0 3.74 0 0 Z " fill="#584335" transform="translate(295,249)"/>
<path d="M0 0 C0.33 0.99 0.66 1.98 1 3 C-5.07027358 5.1583195 -10.59370576 5.20852314 -17 5 C-16.67 4.01 -16.34 3.02 -16 2 C-15.15695313 1.93941406 -14.31390625 1.87882813 -13.4453125 1.81640625 C-12.34960938 1.73261719 -11.25390625 1.64882812 -10.125 1.5625 C-9.03445312 1.48128906 -7.94390625 1.40007812 -6.8203125 1.31640625 C-4.26398303 1.02961583 -2.50524575 0 0 0 Z " fill="#5D432F" transform="translate(200,223)"/>
<path d="M0 0 C3 0 3 0 6 1 C5.525625 1.639375 5.05125 2.27875 4.5625 2.9375 C2.52968613 6.92181519 2.2789471 10.58494074 2 15 C1.67 15 1.34 15 1 15 C1 12.69 1 10.38 1 8 C0.01 8.33 -0.98 8.66 -2 9 C-2.6875 7.3125 -2.6875 7.3125 -3 5 C-1.75 2.25 -1.75 2.25 0 0 Z " fill="#4C7042" transform="translate(26,171)"/>
<path d="M0 0 C0.99 0.33 1.98 0.66 3 1 C3 1.99 3 2.98 3 4 C3.66 4 4.32 4 5 4 C5.33 3.01 5.66 2.02 6 1 C6 2.32 6 3.64 6 5 C3.69 5 1.38 5 -1 5 C-0.67 5.66 -0.34 6.32 0 7 C3.02934491 7.65772428 3.02934491 7.65772428 6 8 C5.67 8.66 5.34 9.32 5 10 C-0.75 10.125 -0.75 10.125 -3 9 C-2.25 2.25 -2.25 2.25 0 0 Z " fill="#918376" transform="translate(116,250)"/>
<path d="M0 0 C0.33 0 0.66 0 1 0 C1.43177893 6.26079448 0.92739438 9.09075703 -3 14 C-4.32 13.34 -5.64 12.68 -7 12 C-6.525625 11.29875 -6.05125 10.5975 -5.5625 9.875 C-3.91260143 6.83918663 -3.39631536 4.40831214 -3 1 C-2.34 1.33 -1.68 1.66 -1 2 C-0.67 1.34 -0.34 0.68 0 0 Z " fill="#4A6C3D" transform="translate(153,167)"/>
<path d="M0 0 C0.99 0 1.98 0 3 0 C3.33 2.31 3.66 4.62 4 7 C5.98 7 7.96 7 10 7 C10 7.99 10 8.98 10 10 C9.21625 10.226875 8.4325 10.45375 7.625 10.6875 C4.78125 11.78125 4.78125 11.78125 3.6875 14.625 C3.3471875 15.800625 3.3471875 15.800625 3 17 C2.67 17 2.34 17 2 17 C2 11.72 2 6.44 2 1 C1.34 0.67 0.68 0.34 0 0 Z " fill="#EBE6E2" transform="translate(46,243)"/>
<path d="M0 0 C0.66 0 1.32 0 2 0 C0.67494706 6.4596331 -3.59409935 10.38917374 -8 15 C-8.33 14.01 -8.66 13.02 -9 12 C-9.99 11.67 -10.98 11.34 -12 11 C-11.29875 10.814375 -10.5975 10.62875 -9.875 10.4375 C-5.46871112 8.23435556 -2.20499255 4.40998511 0 0 Z " fill="#6B5340" transform="translate(350,206)"/>
<path d="M0 0 C0.33 0 0.66 0 1 0 C1.3183515 4.0589816 1.39717586 6.3474968 -0.75 9.875 C-2.96160897 11.96374181 -4.02750614 12.68151851 -7 13 C-7 9 -7 9 -5.75 6.75 C-4.88375 5.88375 -4.88375 5.88375 -4 5 C-2.68 5 -1.36 5 0 5 C0 3.35 0 1.7 0 0 Z " fill="#295221" transform="translate(92,194)"/>
<path d="M0 0 C3.375 -0.125 3.375 -0.125 7 0 C9 2 9 2 9 6 C5.37 5.34 1.74 4.68 -2 4 C-1.34 2.68 -0.68 1.36 0 0 Z " fill="#385B2B" transform="translate(85,164)"/>
<path d="M0 0 C2.5 0.25 2.5 0.25 4.5 2.25 C4.5 3.24 4.5 4.23 4.5 5.25 C3.84 5.25 3.18 5.25 2.5 5.25 C2.17 4.26 1.84 3.27 1.5 2.25 C0.51 2.25 -0.48 2.25 -1.5 2.25 C-1.5 4.23 -1.5 6.21 -1.5 8.25 C-0.571875 8.4665625 -0.571875 8.4665625 0.375 8.6875 C2.5 9.25 2.5 9.25 4.5 10.25 C3.5 11.25 3.5 11.25 0.5625 11.4375 C-2.5 11.25 -2.5 11.25 -4.5 9.25 C-4.75 5.75 -4.75 5.75 -4.5 2.25 C-2.5 0.25 -2.5 0.25 0 0 Z " fill="#4B3321" transform="translate(188.5,248.75)"/>
<path d="M0 0 C2.0625 0.4375 2.0625 0.4375 4 1 C4 3.31 4 5.62 4 8 C2.0625 8.5625 2.0625 8.5625 0 9 C-1 8 -1 8 -1.125 4.5 C-1 1 -1 1 0 0 Z " fill="#EBE7E3" transform="translate(276,250)"/>
<path d="M0 0 C1.77007714 -0.08114106 3.54122098 -0.13925505 5.3125 -0.1875 C6.29863281 -0.22230469 7.28476563 -0.25710937 8.30078125 -0.29296875 C11 0 11 0 12.85546875 1.32421875 C14 3 14 3 14 6 C10.76834156 5.28269264 7.81292078 4.18684926 4.75 2.9375 C3.85796875 2.57527344 2.9659375 2.21304688 2.046875 1.83984375 C1.37140625 1.56269531 0.6959375 1.28554687 0 1 C0 0.67 0 0.34 0 0 Z " fill="#5B3E28" transform="translate(236,192)"/>
<path d="M0 0 C1.03125 0.804375 2.0625 1.60875 3.125 2.4375 C6.39852926 4.80615126 8.96120857 5.5191915 13 6 C13.33 6.66 13.66 7.32 14 8 C11.69 8.66 9.38 9.32 7 10 C5.82739389 8.71372289 4.6620717 7.42080217 3.5 6.125 C2.8503125 5.40570313 2.200625 4.68640625 1.53125 3.9453125 C0 2 0 2 0 0 Z " fill="#CCD9C3" transform="translate(205,41)"/>
<path d="M0 0 C0.90912788 2.51010778 1.10646833 3.69129535 0.22265625 6.25390625 C-0.16019531 7.01574219 -0.54304687 7.77757813 -0.9375 8.5625 C-2.3596626 11.42128787 -3 12.75245364 -3 16 C-4.98 16.33 -6.96 16.66 -9 17 C-8.60167969 16.35933594 -8.20335937 15.71867188 -7.79296875 15.05859375 C-4.78283052 10.14423182 -2.10055882 5.36809475 0 0 Z " fill="#5A892B" transform="translate(218,115)"/>
<path d="M0 0 C1.5 1.375 1.5 1.375 3 3 C3 3.66 3 4.32 3 5 C1.824375 5.37125 1.824375 5.37125 0.625 5.75 C-2.32317108 7.15389099 -2.9024777 8.00675737 -4 11 C-4.66 11 -5.32 11 -6 11 C-5.01 8.03 -4.02 5.06 -3 2 C-2.01 2 -1.02 2 0 2 C0 1.34 0 0.68 0 0 Z " fill="#95877B" transform="translate(135,249)"/>
<path d="M0 0 C-1.98 0.99 -1.98 0.99 -4 2 C-4 4.31 -4 6.62 -4 9 C-2.68 9.66 -1.36 10.32 0 11 C-2.31 10.67 -4.62 10.34 -7 10 C-8.33359073 3.57451737 -8.33359073 3.57451737 -6.875 1.0625 C-4.46420662 -0.30361625 -2.72705554 -0.22111261 0 0 Z " fill="#5C4737" transform="translate(220,249)"/>
<path d="M0 0 C0.99 0 1.98 0 3 0 C3 2.64 3 5.28 3 8 C1.68 8 0.36 8 -1 8 C-1.04241723 5.66705225 -1.04092937 3.33297433 -1 1 C-0.67 0.67 -0.34 0.34 0 0 Z " fill="#F4F2F0" transform="translate(246,250)"/>
<path d="M0 0 C-1.34710422 4.04131267 -3.38428334 4.90288434 -7 7 C-7.99 7 -8.98 7 -10 7 C-7.88268985 1.88316713 -5.59548444 0 0 0 Z " fill="#365B2A" transform="translate(78,169)"/>
<path d="M0 0 C2.67710191 1.33855096 2.95129094 2.72058088 4.125 5.4375 C4.47820312 6.24058594 4.83140625 7.04367188 5.1953125 7.87109375 C6 10 6 10 6 12 C5.01 12.33 4.02 12.66 3 13 C0.78145293 8.37802694 -0.38281159 5.23175837 0 0 Z " fill="#CDDBC6" transform="translate(151,30)"/>
<path d="M0 0 C0.33 0.99 0.66 1.98 1 3 C-0.2065625 3.4021875 -0.2065625 3.4021875 -1.4375 3.8125 C-2.283125 4.204375 -3.12875 4.59625 -4 5 C-4.33 5.99 -4.66 6.98 -5 8 C-5.66 8 -6.32 8 -7 8 C-7 5.69 -7 3.38 -7 1 C-4.53721199 -0.231394 -2.7204945 -0.07159196 0 0 Z " fill="#E6E0DA" transform="translate(289,250)"/>
<path d="M0 0 C0.99 0.33 1.98 0.66 3 1 C3 3.31 3 5.62 3 8 C1.68 8 0.36 8 -1 8 C-1.04241723 5.66705225 -1.04092937 3.33297433 -1 1 C-0.67 0.67 -0.34 0.34 0 0 Z " fill="#F9F9F7" transform="translate(316,250)"/>
<path d="M0 0 C1.12025107 3.33027019 0.89423549 5.36541892 -0.1875 8.6875 C-0.42855469 9.47511719 -0.66960937 10.26273438 -0.91796875 11.07421875 C-2 13 -2 13 -4.11328125 13.76953125 C-4.73589844 13.84558594 -5.35851562 13.92164063 -6 14 C-4.16508812 9.25981099 -2.08058541 4.63586749 0 0 Z " fill="#5C8D2B" transform="translate(196,122)"/>
<path d="M0 0 C0.66 0.33 1.32 0.66 2 1 C-3.0940919 7.70459519 -3.0940919 7.70459519 -6.875 8.9375 C-7.57625 8.958125 -8.2775 8.97875 -9 9 C-9 8.34 -9 7.68 -9 7 C-8.34 7 -7.68 7 -7 7 C-6.95875 6.401875 -6.9175 5.80375 -6.875 5.1875 C-6 3 -6 3 -3.0625 1.1875 C-2.051875 0.795625 -1.04125 0.40375 0 0 Z " fill="#436630" transform="translate(146,12)"/>
<path d="M0 0 C0.99 0 1.98 0 3 0 C3 2.64 3 5.28 3 8 C1.68 8 0.36 8 -1 8 C-1.04241723 5.66705225 -1.04092937 3.33297433 -1 1 C-0.67 0.67 -0.34 0.34 0 0 Z " fill="#F4F3F0" transform="translate(199,250)"/>
<path d="M0 0 C0.66 0.66 1.32 1.32 2 2 C-0.86698342 5.49413605 -2.84150148 7.28836874 -7.3125 7.8125 C-9.1378125 7.9053125 -9.1378125 7.9053125 -11 8 C-11 7.34 -11 6.68 -11 6 C-10.45730469 5.81824219 -9.91460937 5.63648438 -9.35546875 5.44921875 C-8.28232422 5.07216797 -8.28232422 5.07216797 -7.1875 4.6875 C-6.47980469 4.44386719 -5.77210938 4.20023438 -5.04296875 3.94921875 C-2.85527627 2.93275742 -1.59103282 1.79179406 0 0 Z " fill="#624934" transform="translate(287,215)"/>
<path d="M0 0 C0.33 0.99 0.66 1.98 1 3 C-0.40445835 5.2636564 -2.1967913 7.0208685 -4 9 C-5.32 8.34 -6.64 7.68 -8 7 C-5.36 4.69 -2.72 2.38 0 0 Z " fill="#3F6232" transform="translate(148,179)"/>
<path d="M0 0 C0.99 0.33 1.98 0.66 3 1 C0.51520614 2.65652924 -1.9636255 4.16072474 -4.5625 5.625 C-5.34753906 6.07101563 -6.13257813 6.51703125 -6.94140625 6.9765625 C-9 8 -9 8 -11 8 C-10.67 6.02 -10.34 4.04 -10 2 C-9.67 2.66 -9.34 3.32 -9 4 C-4.45829004 2.09115308 -4.45829004 2.09115308 0 0 Z " fill="#5B7F42" transform="translate(162,151)"/>
<path d="M0 0 C0.33 0.66 0.66 1.32 1 2 C0.70351562 2.73605469 0.40703125 3.47210938 0.1015625 4.23046875 C-1.13853581 7.34830457 -1.40479463 9.9727186 -1.625 13.3125 C-1.69976562 14.38113281 -1.77453125 15.44976562 -1.8515625 16.55078125 C-1.90054688 17.35902344 -1.94953125 18.16726562 -2 19 C-2.33 19 -2.66 19 -3 19 C-3.144375 17.906875 -3.28875 16.81375 -3.4375 15.6875 C-3.88288104 12.06877013 -3.88288104 12.06877013 -5 9 C-4.00390625 6.73828125 -4.00390625 6.73828125 -2.5625 4.3125 C-2.08941406 3.50425781 -1.61632812 2.69601563 -1.12890625 1.86328125 C-0.75636719 1.24839844 -0.38382812 0.63351563 0 0 Z " fill="#D4DFCA" transform="translate(108,71)"/>
<path d="M0 0 C1.98 0 3.96 0 6 0 C6 0.66 6 1.32 6 2 C4.68 2 3.36 2 2 2 C2 4.97 2 7.94 2 11 C1.34 11 0.68 11 0 11 C0 7.37 0 3.74 0 0 Z " fill="#584231" transform="translate(67,249)"/>
<path d="M0 0 C0.66 0 1.32 0 2 0 C2 3.63 2 7.26 2 11 C1.34 11 0.68 11 0 11 C-1.49297212 8.01405576 -1.11755228 5.29146376 -1 2 C-0.67 1.34 -0.34 0.68 0 0 Z " fill="#DFD8D0" transform="translate(103,249)"/>
<path d="M0 0 C0.67578125 1.796875 0.67578125 1.796875 1 4 C-0.14453125 5.703125 -0.14453125 5.703125 -1.8125 7.25 C-2.62654297 8.03117188 -2.62654297 8.03117188 -3.45703125 8.828125 C-5 10 -5 10 -7 10 C-7 9.01 -7 8.02 -7 7 C-6.34 7 -5.68 7 -5 7 C-4.34 5.68 -3.68 4.36 -3 3 C-2.34 3 -1.68 3 -1 3 C-0.67 2.01 -0.34 1.02 0 0 Z " fill="#5A3D2A" transform="translate(235,212)"/>
<path d="M0 0 C0 0.66 0 1.32 0 2 C-2.64 2.99 -5.28 3.98 -8 5 C-8.99 4.01 -9.98 3.02 -11 2 C-3.57142857 -1.57142857 -3.57142857 -1.57142857 0 0 Z " fill="#68513F" transform="translate(207,162)"/>
<path d="M0 0 C0.33 0.66 0.66 1.32 1 2 C1.66 2.33 2.32 2.66 3 3 C1.21385682 4.03046722 -0.57910018 5.04913236 -2.375 6.0625 C-3.87160156 6.91521484 -3.87160156 6.91521484 -5.3984375 7.78515625 C-6.25695312 8.18605469 -7.11546875 8.58695313 -8 9 C-8.66 8.67 -9.32 8.34 -10 8 C-6.7 5.36 -3.4 2.72 0 0 Z " fill="#98BF51" transform="translate(165,146)"/>
<path d="M0 0 C0 3 0 3 -1.390625 4.7890625 C-2.31101563 5.69785156 -2.31101563 5.69785156 -3.25 6.625 C-3.85328125 7.23601562 -4.4565625 7.84703125 -5.078125 8.4765625 C-7.09363101 10.0742197 -8.48788161 10.58872398 -11 11 C-7.6189962 6.86378916 -4.33409466 3.18683431 0 0 Z " fill="#497432" transform="translate(180,114)"/>
<path d="M0 0 C0.66 0.33 1.32 0.66 2 1 C-2.11378556 8.68490153 -2.11378556 8.68490153 -5.8125 10 C-6.534375 10 -7.25625 10 -8 10 C-5.61820737 6.25718301 -3.25524265 3.02272532 0 0 Z " fill="#E0E7DA" transform="translate(148,12)"/>
<path d="M0 0 C0.33 0 0.66 0 1 0 C1.66 2.31 2.32 4.62 3 7 C3.33 4.69 3.66 2.38 4 0 C4.33 0 4.66 0 5 0 C5 2.97 5 5.94 5 9 C3.68 9.33 2.36 9.66 1 10 C0 9 0 9 -0.09765625 6.93359375 C-0.08605469 6.10988281 -0.07445312 5.28617188 -0.0625 4.4375 C-0.05347656 3.61121094 -0.04445312 2.78492188 -0.03515625 1.93359375 C-0.02355469 1.29550781 -0.01195312 0.65742188 0 0 Z " fill="#DCD3CE" transform="translate(156,249)"/>
<path d="M0 0 C1.98 0.495 1.98 0.495 4 1 C4 1.99 4 2.98 4 4 C4.99 3.67 5.98 3.34 7 3 C7 3.66 7 4.32 7 5 C4.36 5 1.72 5 -1 5 C-0.67 3.35 -0.34 1.7 0 0 Z " fill="#B5A99E" transform="translate(187,250)"/>
<path d="M0 0 C0.33 0 0.66 0 1 0 C1 3.3 1 6.6 1 10 C0.01 10 -0.98 10 -2 10 C-2.1953125 3.9453125 -2.1953125 3.9453125 -2 2 C-1.34 1.34 -0.68 0.68 0 0 Z " fill="#EFECE8" transform="translate(294,249)"/>
<path d="M0 0 C2.1640625 -0.29296875 2.1640625 -0.29296875 4.625 -0.1875 C5.44226563 -0.16042969 6.25953125 -0.13335937 7.1015625 -0.10546875 C8.04128906 -0.05326172 8.04128906 -0.05326172 9 0 C9 0.66 9 1.32 9 2 C6.59454362 3.20272819 5.05003047 3.10071472 2.375 3.0625 C1.14910156 3.04896484 1.14910156 3.04896484 -0.1015625 3.03515625 C-1.04128906 3.01775391 -1.04128906 3.01775391 -2 3 C-1.34 2.01 -0.68 1.02 0 0 Z " fill="#2B5121" transform="translate(77,220)"/>
<path d="M0 0 C4.5076467 0.53031138 7.41954788 2.25221116 11 5 C11 5.66 11 6.32 11 7 C6.89188572 5.55007731 3.53144334 3.54592427 0 1 C0 0.67 0 0.34 0 0 Z " fill="#E9F0E4" transform="translate(182,55)"/>
<path d="M0 0 C2.475 0.495 2.475 0.495 5 1 C5 4.3 5 7.6 5 11 C4.34 11 3.68 11 3 11 C2.92652344 10.06027344 2.92652344 10.06027344 2.8515625 9.1015625 C2.77679688 8.28429687 2.70203125 7.46703125 2.625 6.625 C2.55539062 5.81289062 2.48578125 5.00078125 2.4140625 4.1640625 C2.17107412 1.79665809 2.17107412 1.79665809 0 0 Z " fill="#593D2B" transform="translate(265,249)"/>
<path d="M0 0 C0.08096803 1.45742463 0.13917774 2.91612807 0.1875 4.375 C0.22230469 5.18710938 0.25710938 5.99921875 0.29296875 6.8359375 C0.19628906 7.55007813 0.09960938 8.26421875 0 9 C-0.99 9.66 -1.98 10.32 -3 11 C-3 7.7 -3 4.4 -3 1 C-1 0 -1 0 0 0 Z " fill="#DED7D2" transform="translate(307,249)"/>
<path d="M0 0 C1.4540625 0.0309375 1.4540625 0.0309375 2.9375 0.0625 C4.36838528 2.92427057 3.53741697 4.99625773 2.9375 8.0625 C2.6075 8.0625 2.2775 8.0625 1.9375 8.0625 C1.6075 6.0825 1.2775 4.1025 0.9375 2.0625 C0.2775 2.0625 -0.3825 2.0625 -1.0625 2.0625 C-1.3925 4.3725 -1.7225 6.6825 -2.0625 9.0625 C-2.3925 9.0625 -2.7225 9.0625 -3.0625 9.0625 C-3.94140625 2.91015625 -3.94140625 2.91015625 -4.0625 1.0625 C-3.0625 0.0625 -3.0625 0.0625 0 0 Z " fill="#816F5F" transform="translate(317.0625,248.9375)"/>
<path d="M0 0 C1.39195915 4.17587745 -0.17676781 6.13474776 -2 10 C-1.34 10.33 -0.68 10.66 0 11 C-1.65 11.33 -3.3 11.66 -5 12 C-3.68938409 7.76570244 -2.05643741 3.92592596 0 0 Z " fill="#5C8928" transform="translate(239,112)"/>
<path d="M0 0 C0 0.66 0 1.32 0 2 C-0.969375 1.979375 -1.93875 1.95875 -2.9375 1.9375 C-5.87465895 1.64381501 -5.87465895 1.64381501 -7 3 C-7.23075082 4.34747084 -7.41153063 5.70377565 -7.5625 7.0625 C-7.7790625 9.0115625 -7.7790625 9.0115625 -8 11 C-8.33 11 -8.66 11 -9 11 C-9.33 8.03 -9.66 5.06 -10 2 C-6.3558226 -0.4294516 -4.28758728 -0.16179575 0 0 Z " fill="#6A5A4B" transform="translate(92,244)"/>
<path d="M0 0 C1 3 1 3 0 6 C-2.3125 6.625 -2.3125 6.625 -5 7 C-5.99 6.34 -6.98 5.68 -8 5 C-6.865625 4.731875 -5.73125 4.46375 -4.5625 4.1875 C-3.386875 3.795625 -2.21125 3.40375 -1 3 C-0.67 2.01 -0.34 1.02 0 0 Z " fill="#4E6F43" transform="translate(91,214)"/>
<path d="M0 0 C2.625 0.375 2.625 0.375 5 1 C2.59563974 4.60654039 1.05320393 4.85452932 -3 6 C-2.42655063 3.13275314 -2.1385485 2.1385485 0 0 Z " fill="#315826" transform="translate(30,167)"/>
<path d="M0 0 C2.64752004 2.57784846 4.94432065 4.91648098 7 8 C4.625 7.75 4.625 7.75 2 7 C0.2058242 4.43689172 0 3.16880694 0 0 Z " fill="#456B2D" transform="translate(208,39)"/>
<path d="M0 0 C0.33 0 0.66 0 1 0 C0.67 2.97 0.34 5.94 0 9 C-0.99 9.33 -1.98 9.66 -3 10 C-2.25 2.25 -2.25 2.25 0 0 Z " fill="#345B25" transform="translate(94,211)"/>
<path d="M0 0 C0.66 0 1.32 0 2 0 C1.38545304 3.99455527 -0.70646737 6.74466336 -3 10 C-3.66 9.34 -4.32 8.68 -5 8 C-4.21718695 6.66144944 -3.42348123 5.32926356 -2.625 4 C-2.18414062 3.2575 -1.74328125 2.515 -1.2890625 1.75 C-0.86367187 1.1725 -0.43828125 0.595 0 0 Z " fill="#577650" transform="translate(161,205)"/>
<path d="M0 0 C0 0.66 0 1.32 0 2 C-2.90600261 3.25664978 -4.79604584 4 -8 4 C-7 1 -7 1 -5.125 -0.25 C-3 -1 -3 -1 0 0 Z " fill="#34542E" transform="translate(85,206)"/>
<path d="M0 0 C0.99 1.32 1.98 2.64 3 4 C-3.625 7.125 -3.625 7.125 -7 6 C-4.69 4.02 -2.38 2.04 0 0 Z " fill="#644936" transform="translate(274,194)"/>
<path d="M0 0 C1.32 0.66 2.64 1.32 4 2 C3.67 3.65 3.34 5.3 3 7 C2.5875 6.54625 2.175 6.0925 1.75 5.625 C-0.06408095 3.94049626 -1.75285627 3.00734029 -4 2 C-2.68 2 -1.36 2 0 2 C0 1.34 0 0.68 0 0 Z " fill="#4E6B44" transform="translate(113,190)"/>
<path d="M0 0 C0.33 0.99 0.66 1.98 1 3 C1.66 3.33 2.32 3.66 3 4 C-1.455 4.495 -1.455 4.495 -6 5 C-6 4.34 -6 3.68 -6 3 C-4.02 2.01 -2.04 1.02 0 0 Z " fill="#446F2B" transform="translate(170,147)"/>
<path d="M0 0 C-0.99 0.495 -0.99 0.495 -2 1 C-2 1.99 -2 2.98 -2 4 C-2.99 4 -3.98 4 -5 4 C-5 3.34 -5 2.68 -5 2 C-6.65 2 -8.3 2 -10 2 C-6.19832777 -0.53444815 -4.31588991 -1.33941411 0 0 Z " fill="#9DC14C" transform="translate(192,137)"/>
<path d="M0 0 C2.64 0 5.28 0 8 0 C7.34 1.32 6.68 2.64 6 4 C4.35 4 2.7 4 1 4 C0.67 2.68 0.34 1.36 0 0 Z " fill="#CFDBCB" transform="translate(75,223)"/>
<path d="M0 0 C0.66 0 1.32 0 2 0 C0.79157144 4.43090471 -0.51668565 6.98112756 -4 10 C-3.43697042 6.05879291 -2.3208055 3.2491277 0 0 Z " fill="#594434" transform="translate(350,206)"/>
<path d="M0 0 C1 2 2 4 3 6 C2.071875 6.86625 2.071875 6.86625 1.125 7.75 C-0.81347053 9.80249821 -1.90014249 11.43366582 -3 14 C-3.6875 12.3125 -3.6875 12.3125 -4 10 C-3.04504326 8.30712215 -2.0409066 6.64142963 -1 5 C-0.29329272 2.30745009 -0.29329272 2.30745009 0 0 Z " fill="#C1CCBC" transform="translate(98,200)"/>
<path d="M0 0 C4.04420651 1.77945087 7.46078487 4.39529673 11 7 C10.01 7.33 9.02 7.66 8 8 C5.95703125 6.85546875 5.95703125 6.85546875 3.8125 5.1875 C3.09707031 4.64480469 2.38164063 4.10210937 1.64453125 3.54296875 C1.10183594 3.03378906 0.55914062 2.52460937 0 2 C0 1.34 0 0.68 0 0 Z " fill="#DCE1D4" transform="translate(115,111)"/>
<path d="M0 0 C1 2 1 2 0.4375 4 C-1.57302108 6.79724672 -3.74418077 7.15065585 -7 8 C-5.50902342 4.2047869 -3.24299151 2.38957269 0 0 Z " fill="#2D531B" transform="translate(140,19)"/>
<path d="M0 0 C0.66 0 1.32 0 2 0 C2.433125 1.423125 2.433125 1.423125 2.875 2.875 C3.76825109 6.05211578 3.76825109 6.05211578 6 8 C1.125 7.125 1.125 7.125 0 6 C-0.04080783 4.00041636 -0.04254356 1.99954746 0 0 Z " fill="#4D3727" transform="translate(195,252)"/>
<path d="M0 0 C-1.2491742 3.45925163 -2.67527795 6.14693203 -5 9 C-4.4140625 2.84765625 -4.4140625 2.84765625 -4 1 C-2 0 -2 0 0 0 Z " fill="#D4E2D1" transform="translate(133,199)"/>
<path d="M0 0 C0.66 1.32 1.32 2.64 2 4 C1.401875 4.103125 0.80375 4.20625 0.1875 4.3125 C-2.28243264 5.08876455 -3.32251235 6.07088921 -5 8 C-5.66 7.67 -6.32 7.34 -7 7 C-4.69 4.69 -2.38 2.38 0 0 Z " fill="#6B5141" transform="translate(313,185)"/>
<path d="M0 0 C0.99 0.33 1.98 0.66 3 1 C2.21625 1.763125 1.4325 2.52625 0.625 3.3125 C-2.07257717 5.90891805 -2.07257717 5.90891805 -4 9 C-3.38461538 3.46153846 -3.38461538 3.46153846 -1.4375 1.125 C-0.963125 0.75375 -0.48875 0.3825 0 0 Z " fill="#442B18" transform="translate(192,167)"/>
<path d="M0 0 C1.32 0.33 2.64 0.66 4 1 C4.33 2.32 4.66 3.64 5 5 C3.68 4.67 2.36 4.34 1 4 C0.67 2.68 0.34 1.36 0 0 Z " fill="#503724" transform="translate(245,193)"/>
<path d="M0 0 C1 3 1 3 1 7 C-0.65 7.33 -2.3 7.66 -4 8 C-2.68 5.36 -1.36 2.72 0 0 Z " fill="#4E7C23" transform="translate(260,105)"/>
<path d="M0 0 C2 3 2 3 1.625 5.1875 C1.41875 5.785625 1.2125 6.38375 1 7 C-1.475 6.01 -1.475 6.01 -4 5 C-2.68 4.34 -1.36 3.68 0 3 C0 2.01 0 1.02 0 0 Z " fill="#E4E1DB" transform="translate(145,256)"/>
<path d="M0 0 C0.391875 0.66 0.78375 1.32 1.1875 2 C2.85416667 4.29166667 2.85416667 4.29166667 5.6875 4.25 C6.8321875 4.12625 6.8321875 4.12625 8 4 C7.67 4.66 7.34 5.32 7 6 C5.02 6 3.04 6 1 6 C-0.0625 4.125 -0.0625 4.125 -1 2 C-0.67 1.34 -0.34 0.68 0 0 Z " fill="#5E4837" transform="translate(185,254)"/>
<path d="M0 0 C1.98 0 3.96 0 6 0 C7.35439668 2.70879335 7.06501451 5.00933268 7 8 C6.67 8 6.34 8 6 8 C6 6.35 6 4.7 6 3 C4.02 2.34 2.04 1.68 0 1 C0 0.67 0 0.34 0 0 Z " fill="#89786A" transform="translate(106,249)"/>
<path d="M0 0 C-1.375 1.5 -1.375 1.5 -3 3 C-3.66 3 -4.32 3 -5 3 C-5.33 3.66 -5.66 4.32 -6 5 C-6.33 3.68 -6.66 2.36 -7 1 C-3.375 -1.125 -3.375 -1.125 0 0 Z " fill="#584535" transform="translate(278,206)"/>
<path d="M0 0 C1.625 1.6875 1.625 1.6875 3 4 C2.1875 6.75 2.1875 6.75 1 9 C0.34 8.34 -0.32 7.68 -1 7 C-0.625 3.375 -0.625 3.375 0 0 Z " fill="#644A36" transform="translate(323,168)"/>
<path d="M0 0 C2.375 -0.125 2.375 -0.125 5 0 C5.66 0.66 6.32 1.32 7 2 C6.625 5.125 6.625 5.125 6 8 C4.5393715 5.35261084 4 4.10551666 4 1 C2.68 0.67 1.36 0.34 0 0 Z " fill="#284E1A" transform="translate(146,164)"/>
<path d="M0 0 C2.31 0 4.62 0 7 0 C5 3 5 3 2.375 3.6875 C1.199375 3.8421875 1.199375 3.8421875 0 4 C0 2.68 0 1.36 0 0 Z " fill="#9CBF47" transform="translate(215,130)"/>
<path d="M0 0 C0.66 1.32 1.32 2.64 2 4 C1.01 4.99 0.02 5.98 -1 7 C-1.66 6.67 -2.32 6.34 -3 6 C-1.125 1.125 -1.125 1.125 0 0 Z " fill="#5A402D" transform="translate(304,201)"/>
<path d="M0 0 C0.66 0.33 1.32 0.66 2 1 C1.34 1.66 0.68 2.32 0 3 C1.65 3.33 3.3 3.66 5 4 C5 4.33 5 4.66 5 5 C2.69 5.33 0.38 5.66 -2 6 C-2.33 4.68 -2.66 3.36 -3 2 C-2.01 1.34 -1.02 0.68 0 0 Z " fill="#DBD3CB" transform="translate(277,188)"/>
<path d="M0 0 C0.66 0.99 1.32 1.98 2 3 C0.68 3.99 -0.64 4.98 -2 6 C-2.99 5.34 -3.98 4.68 -5 4 C-3.35 2.68 -1.7 1.36 0 0 Z " fill="#684B39" transform="translate(280,182)"/>
</svg>
